<?xml version="1.0" encoding="UTF-8"?>
<svg id="svg2" width="555.3" height="351.8" version="1.0" xmlns="http://www.w3.org/2000/svg" xmlns:cc="http://creativecommons.org/ns#" xmlns:dc="http://purl.org/dc/elements/1.1/" xmlns:rdf="http://www.w3.org/1999/02/22-rdf-syntax-ns#">
 <!-- <metadata id="metadata7">
  <rdf:RDF>
   <cc:Work>
    <dc:format>image/svg+xml</dc:format>
    <dc:type rdf:resource="http://purl.org/dc/dcmitype/StillImage"/>
    <dc:title/>
    <cc:license rdf:resource="http://creativecommons.org/publicdomain/zero/1.0/"/>
    <dc:date>2013-01-30</dc:date>
    <dc:creator>
     <cc:Agent>
      <dc:title>U.S. Census Bureau, Abe.suleiman, Lokal_Profil</dc:title>
     </cc:Agent>
    </dc:creator>
    <dc:source>https://commons.wikimedia.org/wiki/File:Usa_counties_large.svg</dc:source>
   </cc:Work>
   <cc:License rdf:about="http://creativecommons.org/publicdomain/zero/1.0/">
    <cc:permits rdf:resource="http://creativecommons.org/ns#Reproduction"/>
    <cc:permits rdf:resource="http://creativecommons.org/ns#Distribution"/>
    <cc:permits rdf:resource="http://creativecommons.org/ns#DerivativeWorks"/>
   </cc:License>
  </rdf:RDF>
 </metadata>
 <style id="style_css_sheet" type="text/css">
  /* * Below are Cascading Style Sheet (CSS) definitions in use in this file, * which allow easily changing how counties are displayed. * * To e.g. colour two counties red simply go to the CSS insertion point and add: * .c02185, c02188 {fill:red} * * */
  .counties {fill:#d0d0d0;fill-rule:nonzero;stroke:#000000;stroke-width:0.178287;}
  .State_Lines {fill:none;stroke:#221e1f;stroke-width:0.89143497;}
  .separator {fill:none;stroke:#a9a9a9;stroke-width:2.3177309;}
  /*CSS insertion point*/
 </style> -->
 <g id="county-group" class="counties" transform="matrix(.56118 0 0 .56118 -.000329 -.037981)" style="fill:#d0d0d0;stroke-width:.17829;stroke:#000">
  <path id="Prince_William__VA" class="c51153" d="m849.45 261.02 0.57668 3e-3 0.31735 0.6049 0.19286 3e-3 -0.0161 0.30123 0.28474-0.0411 0.33661-0.0826 0.19138-0.15519 0.24325 0.14563 0.0358 0.25974 0.34809 0.15435 6e-3 0.2166 0.19248 0.36182 0.1925-0.17759 0.47257 0.40331-0.0461 0.27884 0.22361 0.18547 0.14063-0.12572 0.0323-0.18143 0.62357 0.0364 0.053 0.31649 0.13515 4e-3 0.27-0.23467 1.131 0.60557 0.41523 0.38773-0.68478 3.5996-1.2738-0.16011-1.6169-1.1017-0.69128-0.10425-0.55562 0.98098-0.77062-0.86792-3.7672-4.814-0.0571-0.248 0.0623-0.49721-0.03-0.46029 0.33001 0.23197 0.25617-1.7433 0.74077 0.37708 0.64846 0.60783 0.71307 0.14632zm2.1776 1.6893 0.0492-0.25359 5.3e-4 -0.17754-0.19412-0.19977-0.23356-2e-3 -0.28469 7e-3 -0.16425 0.18853 0.0709 0.0763-0.0341 0.15335-0.33937 0.39075-0.08 0.27143-0.0789 0.0999-0.13537 0.0957 0.0693 0.48407 0.41308 0.22627 0.0771-0.17608-0.31274-0.4698 0.13647-0.13777 0.39038 0.11614 0.23804 0.0653 0.24962-0.26741-0.0118-0.61071z" style="fill:#d0d0d0"/>
  <path id="Manassas_Park__VA" class="c51685" d="m850.8 262.27 0.0709 0.0766 0.31723 0.0248 5e-3 0.17325 0.25994 0.0428 0.174 0.12079 0.0493-0.25359 5.3e-4 -0.17754-0.19412-0.20035-0.23357-2e-3 -0.28468 7e-3z" style="fill:#d0d0d0"/>
  <path id="North_Slope__AK" class="c02185" d="m111.75 462.41 1.5725-1.571 1.1767-0.784 0.39045 0.784-0.78268 0.393h0.78268l3.9294-1.177 3.5354-4.324 3.1414 1.573v0.788l-1.1785 1.175v1.182l1.1785-0.394 0.78624-1.963 0.78447-0.788 1.1785 1.177 0.39223 1.574 1.1785 0.394 0.39045-0.786 1.9629-0.396h3.1432l0.39045 0.396-0.78447 1.176v0.393l2.3587 0.394-0.3958 1.176h1.5725l1.9629-1.176 4.3199-0.394 2.7492 0.786h1.1838l1.1731 0.392 0.39758 0.392h1.5707l1.9629-0.392h2.3587l2.7492 0.788 0.78446-0.396 1.5725-1.176 0.39045-0.394 0.78625-0.783 2.751 0.39 6.2828 1.963 1.9629 6.287 1.1785 3.927-16.103 3.928 0.78625 4.318-3.1414 0.786-8.2493 1.576h-0.39758l-18.454 1.962h-4.3217v-0.787h-3.1396v-0.786h-3.1432l-3.1414 0.392h-2.3587v-0.781h-1.1767v0.389h-3.5336l-0.78624-0.389h-0.39402v0.389h-1.5689l-0.3958-0.784h-1.9629v0.784h-0.78803l-5.5002-0.389v1.566h-2.7492l-2.3552-1.177-1.1785-1.572 0.78446-2.354 0.39401-2.752 2.7492 0.395 3.5372-0.395 1.1749-0.391 2.3569-2.751 1.182-3.534 2.3552-3.533 1.5725-1.574 1.1767 0.397 1.5725-0.788 2.357-2.751" style="fill:#d0d0d0"/>
  <path id="Northwest_Arctic__AK" class="c02188" d="m132.56 496.98h-0.78268l-1.5707 0.784 0.39401 0.786h-2.3552v2.355l-1.5725 0.395v-0.785l-0.78446-0.783h-1.5707v1.568h-1.5725v-1.568h-3.1396v3.534h-3.9277v1.569h-2.3552v3.928h-0.78624v0.788h-0.78625l-13.748-0.394v-1.573h-0.3958l-0.39045-0.392v-1.177l-0.78625-0.394v-3.141l-0.3958-3.93h1.5725l0.78625 0.393-0.78625 2.749 0.3958 1.574 7.0691 0.781 1.9647-1.961h1.1803l-0.3958-0.786-1.1767-0.785-1.1767-0.783-1.5778-1.968-0.7809-0.39-0.39223-1.179 0.39223-0.394h0.7809l1.182 2.749 1.5725 1.571 0.78625-0.389-0.78625-0.394-1.1767-1.574 0.78446-2.355 0.39223 0.392v-0.392l-1.1767-0.785-1.9647 0.391h-1.5743l-2.751-1.177-1.1749-4.32-3.9312-4.323h2.7492v-1.566l5.5002 0.389h0.78803v-0.784h1.9629l0.3958 0.784h1.5689v-0.389h0.39402l0.78624 0.389h3.5336v-0.389h1.1767v0.781h2.3587l3.1414-0.392h3.1432v0.786h3.1396v0.787h3.1432v1.963h0.78446v0.786l1.5689 1.572v2.354h1.5707l0.78268 0.786 0.39579 2.357-0.39579 1.571" style="fill:#d0d0d0"/>
  <path id="path6497" d="m236.25 561-0.39063 0.78516 1.1797 0.78515 0.39258 0.39258 0.78125 0.39258 0.39648 0.39258 1.1777 2.3574 0.7871-0.39063v-0.39453l-1.4355-2.5781 1.1348-1.0566-1.2734-0.68555h-2.75zm1.9629 2.3555h-1.1738l-1.1797-0.78516-0.78711 0.39258-0.39062 1.1816 0.78711 1.1758 1.9629 1.1777 0.78125 0.78515h-0.78125v1.1816l0.78125 1.9629 0.78711 0.39063-0.39063-1.9648 0.7832 0.78906v-2.3594h-0.7832l-0.39648-1.1777v-0.78516l0.78711-0.39062-0.78711-1.5742zm18.854-1.9609-0.38867 0.78516 0.0488 1.4883 1.5234 0.86914v-2.3574l-1.1836-0.78516zm-14.926 4.7109-1.959 0.78515v0.39258l0.78515 1.9648-0.39258 1.1797 0.39258 0.39063 0.78516-0.39063 0.38867-1.1797 1.1836 1.5703-0.39648 0.39453h-0.78711l-0.38867 0.39258 1.9648 0.78515h1.1777l1.1777 1.1777-1.5703 1.5723 0.39258 0.78516 4.7129 3.1426h1.1797l-0.78711-1.9629-0.78321-0.39453-0.78906 0.78711-1.9629-2.75 3.5352 1.1777 2.3555 1.9629 1.1797-0.39062v-1.1816l-1.9648-3.5352-1.5703-0.7832-2.3574-2.75-5.502-3.1426zm-6.6719 3.1426 0.39062 0.7832v-0.7832h-0.39062zm5.1055 1.5703-0.39257 0.39453 0.39257 0.39258v-0.78711zm-1.9648 0.78711-0.39648 0.39258 0.78711 0.39257 0.39257-0.78515h-0.7832zm14.926 0 0.39258 1.5723 0.39258 0.78516 1.1797-0.78516-0.39258-1.1797-1.5723-0.39258zm-9.4277 1.1758-1.5742 0.78711v1.1797l1.5742 0.39257 0.78711-1.9629-0.78711-0.39648z" style="fill:#d0d0d0"/>
  <path id="Ketchikan_Gateway__AK" d="m256.29 573.18-0.78515 1.1758h1.1777v-0.78516zm0.39258-10.998h-1.1777l-2.3574-1.1797-1.5723 0.39453 1.1797 0.78516-0.39453 0.7832-1.1758 1.5742-1.1797 0.7832-0.39258 0.78516v1.5723l0.39258 0.39258v1.5723l-1.1777-0.39453h-0.39453l1.1797 1.1797h1.1797v-2.75l-0.78711-0.39453 0.78711-0.39258 1.1777 2.3574-0.39453 0.7832v0.78711l0.43555 0.125 0.34961 1.0547 1.1797 1.1797-0.39258-1.5723-0.88281-0.58985 2.0606 0.58985 1.5703-0.39258 0.39453-1.1816-0.78515-2.3535-3.1445-2.748 2.752 1.9609 1.5703 2.752-0.39258 1.5703 1.9648 2.75 0.78125 0.39063 1.1777-0.39063 0.78516-2.75v-3.1426l-2.7441-3.5332-1.5228-0.86855z" style="fill:#d0d0d0"/>
  <path id="path6542" d="m245.11 559.57-0.30078 1.5547-0.85742 0.34766 0.95117 0.31641 0.78515 2.752-0.78515 1.5684v0.78515l1.1777 0.78711 1.9648 0.39258 0.39062-0.78711-0.39062-0.78515 0.39062-1.5684 0.78906 3.1406-0.39453 1.1777 1.1777 0.39453v-1.5723l-0.39258-0.39258v-1.5723l0.39258-0.78516 1.1797-0.7832 1.1758-1.5742 0.39453-0.7832-1.1797-0.78516-3.1426-0.78711-0.78516 0.39258-1.1777-1.1777-1.3633-0.25586zm-0.99414 4.5781-1.1797 0.78516v1.1758h1.1797l0.78711-0.39063-0.78711-1.5703z" style="fill:#d0d0d0"/>
  <path id="path6540" d="m239.21 554-3.4082 0.33789-0.33007 0.76758v0.78515l1.3144 2.3809 0.1875 1.4004 0.85351 0.14649h1.1758l1.9668-0.39454 0.38868 0.78516 1.1777 0.78711 1.4102 0.46875 0.85742-0.34766 0.30078-1.5547-0.16016-1.3379-1.6172 0.0234v-1.1797l-1.1836-1.1777-1.5527-1.2617-0.75196 0.23828-0.59179-0.15625-0.0371-0.71093zm0.97461 6.209-1.1816 0.78711 1.2734 0.68555-1.1348 1.0566 1.4355 2.5781h1.1777l0.38867-0.7832-0.38867-0.78906-1.5703-0.78516v-0.7832l1.959 1.1758v0.78906h1.1836l1.1777-1.5742-4.3203-2.3574z" style="fill:#d0d0d0"/>
  <path id="Sitka__AK" class="c02220" d="m226.04 557.46 1.9629 0.788 1.5725-0.788 1.1767 1.965v0.394l-1.1767 0.39-2.751-1.176-0.394 0.392 1.1802 1.572-0.39401 1.179h-0.78623l-3.5336-3.143 1.5707-0.391v-1.572l1.5725 0.39m9.8201 12.569v0.396l-0.78625-0.396-1.9647-1.962v-1.179l-0.78444 0.786-0.39403-0.786-1.1785-0.394-0.78446-2.353-0.78803-0.788v-0.785l-0.78447 0.391-1.1785-0.783 0.78624-2.357 1.5725 0.786 1.5707-0.396 0.39221 0.788-0.78624 0.394h0.78624l2.7528 4.32 1.5689 3.534h-0.39045l0.39045 0.784m-9.0356-7.461 0.39223-0.392 1.5707 1.569v1.182l-0.78447 0.39-1.1785-2.749" style="fill:#d0d0d0"/>
  <path id="Haines__AK" class="c02100" d="m224.86 547.25-0.39223 0.392-1.1785-1.963-1.1767-0.786v0.394l1.9647 3.141 1.5689 2.357 1.9647 3.142h-1.5707l-1.1802-1.177-0.39223-0.392 0.78623-0.787-0.78623-0.786-1.963-0.394 0.39225-1.963-1.5707-1.178h-3.5354v-3.143l1.5707-1.963 3.1432 2.358 1.1767-0.395 0.39578 0.395h1.5689l0.78448 0.785 0.394-0.394 0.78624 1.178h0.39223l-3.1432 1.179" style="fill:#d0d0d0"/>
  <path id="Juneau__AK" class="c02110" d="m235.08 553.93v0.786h-0.78268l-2.7528-2.355-1.9629 0.781-3.145-1.96-1.9629-3.537 0.39223-0.392 3.1432-1.179 0.78447 0.785 1.1803 0.394 3.9277 1.572v0.785l1.9647 1.178-0.78625 2.748v0.394m-5.1062 0.394h-0.78803l-0.39223-1.182 0.39223 0.394 0.39581-0.394 1.9629-0.389-1.1785 0.783-0.39223 0.394v0.394" style="fill:#d0d0d0"/>
  <path id="path6510" d="m222.51 544.51-3.1432-2.358 0.78801-1.177 1.5689 0.39 1.1785 0.787 0.78446 1.963-1.1767 0.395" style="fill:#d0d0d0"/>
  <path id="path6581" d="m217.79 547.25v0.78515l-1.1777 0.39258-2.3555 3.5352-1.5703 1.5703 3.9258 1.5723 1.1777 0.39257h0.78711l1.5723 0.78516 2.3555-2.3574-1.5723-2.3555-2.3555-0.78516h-1.5723v-0.39453l3.5352 0.78711h0.39258v-0.78711l1.1797 1.1797 0.78321 2.3555 1.9629-1.1758-0.39063-0.39258 0.78516-0.78711-0.78516-0.78516-1.9629-0.39453 0.39063-1.9629-1.5703-1.1777h-3.5352zm9.4258 4.7129v0.39453l1.5703 1.9629 1.5742 3.1387 1.9629 1.5742v2.3574l1.1777 1.5684 1.1816-1.9629v-1.1777l0.78711-1.1777-0.39649-0.78711-2.75-2.748 0.39258-0.39258 1.1797 1.5703h0.78711l-3.1445-3.1445v-0.38867l-1.1777 0.7832-0.39258 0.39258v0.39453h-0.78906l-0.39258-1.1816-1.1758-1.1758h-0.39453zm-3.1387 2.3574-0.78906 0.78516-1.5703 0.39257-0.39258 1.9609 0.39258 1.1816 1.1777 0.39258 1.5723-0.39258v-1.5723l1.5723 0.39062 1.9629 0.39453 0.7832-0.39453 0.39258-0.39062-0.39258-1.1777-0.39062-0.78515-4.3184-0.78516z" style="fill:#d0d0d0"/>
  <path id="path6556" d="m240.59 554.63-4.7282-3.8431-0.78711 2.748v0.39258l0.39649 1.1797 0.32932-0.76835 3.4099-0.33781 0.036 0.71194 0.59229 0.15561z" style="fill:#d0d0d0"/>
  <path id="Yakutat__AK" class="c02282" d="m195.41 544.51h1.9612l0.39582-0.788 2.357 0.393 0.78625-1.568 2.3552-0.788 0.39401 2.356 0.78447 0.395 1.9647 0.391 0.78446 1.178 5.8924 3.142 1.1785 2.751-1.5707 1.569v-0.783l-1.1803-0.786-8.638-1.965-0.39401-0.392v-0.785h0.78446v-0.786l-1.1767-1.965-0.39401 1.179-1.5707 1.572-3.539 0.391-2.3534-1.177-5.1044 0.392-5.4984 1.963 1.9665-5.104 5.1026-1.573h0.78446v0.788l2.7492-0.788h0.78626l0.39222 0.788" style="fill:#d0d0d0"/>
  <path id="Aleutians_West__AK" class="c02016" d="m62.259 580.25-0.78446 0.786-0.39401-0.396v-0.39h1.1785m1.9647 6.284h0.39223l-0.39223 0.392-0.78625-0.786 0.78625 0.394m13.348 25.137 1.5725 1.571-0.39401 0.786-3.1414 2.355-1.1785 0.394h-1.1767l-3.1432 1.178-1.1785-0.786 4.3217-1.572 0.39045-3.142 0.39402-0.392 2.3552-0.392v0.784l0.39401 0.394 0.39401-0.394 0.39045-0.784m-13.742 6.284 2.3587-1.572 0.38688-0.786 0.78625-0.392 1.1785-0.391 1.1785 0.391-0.78625 1.572-1.5707 0.392-1.9612 1.963-2.357 1.18-1.1767 0.393 1.9629-1.965v-0.785m-56.565 0 0.39758 0.393-0.39758 0.392-0.39223-0.392 0.39223-0.393m3.9312 0.393h0.78446l0.78625 1.572-1.1767 0.785-0.78625-0.393-0.39401-1.964h0.78625m47.53 0v0.784l-0.39401-0.392 0.39401-0.392m-1.9647 0.784h0.38867l-0.38867 0.394-0.39758-0.394h0.39758m-24.356 1.18-0.39223-0.392 1.5725-0.788 0.78268 1.18-1.1767 1.571h-2.357l-4.3199-0.788 3.9277 0.396 1.9629-0.786 0.39401-0.393h-0.39401m-10.212-0.786h0.78446v0.786l-0.39045 0.393-0.78624-0.393v-0.786h0.39223m-5.8924 0 0.78625 0.394-1.1785 1.571h-0.78446l-1.1785-0.786 1.9629-0.393 0.39223-0.786m42.031 0 0.39401 0.394-0.39401 0.392-1.5707-0.392 0.38867-0.394h1.182m-38.494 1.569 1.1767 0.396-0.39223 0.784-3.9277 0.391 1.9647-2.746h1.1785v0.392h-0.39401l-0.39401 0.783h0.78803m36.133-0.783h0.39223v0.393h-0.39223v-0.393zm-2.7492 0 0.3958 0.393-0.3958 0.786h-1.1749v-0.786l1.1749-0.393m-29.066 0.783 0.39401 0.396h-0.39401v-0.396m-2.7474 0.396h1.1785l0.39045 0.392-1.1767 0.392-0.78625-0.392 0.39401-0.392m-16.103 0v0.392l-0.39758 0.392 0.39758-0.784m44.381 0 0.39402 0.392-0.39402 0.392-0.39223-0.392 0.39223-0.392m-6.6768 0 0.39402 0.392v0.392h-1.5725l0.39402-0.392 0.78446-0.392m-7.0709 0.784 0.78803 0.391 2.7492 0.788h-3.1432l-1.5689-0.394-1.1785-1.177 1.1785 0.392h1.1749m-31.421-0.392v0.783h-0.39401l0.39401-0.783" style="fill:#d0d0d0"/>
  <path id="Aleutians_East__AK" class="c02013" d="m113.71 597.92v0.782l-0.39045-0.782v-0.788l-0.78624-0.394-0.39402 0.786h-0.78446l-0.3958 0.786-1.9629 1.573-3.5319 1.176-1.5778-0.392 0.78981-1.965h-1.1767l-1.9683 4.713-1.5689 0.786-1.182-0.392v-1.963l-0.7809-0.394-0.3958 0.784 0.3958 0.786 0.39045 1.573-1.5725 0.392-0.78625-1.965-1.1785 0.393 0.78803 1.572v2.355l-1.1785-0.392-1.5725 0.392h-2.7492l-0.78625 0.396-1.1767 1.177h-1.9647l-0.39223-1.177v-0.788l1.1785-0.394 0.78446-1.177 4.3199-1.964h1.1785l0.39401 1.964h0.78625v-2.357l2.3552-0.786 3.5408-3.926 2.3552-1.965 2.3552-0.786 1.1803 0.392 1.1785 0.394h-0.39402v0.787l0.39402 0.788 0.78624-0.396 0.39223-0.786v-1.179l1.1767-2.749 2.357-1.961 4.7121-3.145 0.39401 0.396v0.388l-0.78446 0.788h-1.1785v0.787h-1.5725v0.786h-1.5707v1.567h0.39402v3.143l-0.39402 0.786h1.5707v1.575m-3.5336 2.351h0.78268v0.788h-0.78268l-0.39401-0.392 0.39401-0.396m-1.1803 1.181h0.78625v0.784l-0.78625 1.179-1.5689-0.393-0.39402-1.57 0.39402-0.393h0.78624l0.78268 0.393m3.1432 0.394 0.39402 1.569-1.9647 2.356v-2.356l0.39045-0.393 0.78803 0.393 0.39223-1.569m1.9647 0.39v1.965h-0.78446l0.78446-1.965m-10.999 1.179 0.39401 0.394h-0.78624l-0.78803-0.787 0.39223-0.392 0.78803 0.785m11.781 0.394 0.3958 0.786-0.78625 0.392v-1.178h0.39045m-14.924 0.786v0.784l-0.39045 0.392-0.79159-0.784 1.182-0.392m15.32 0.392 0.39223 0.392-0.39223 0.392v-0.784m-18.465 3.928 1.182 0.39v0.396h-1.182l-0.39045-0.396 0.39045-0.39m-14.532 0.786h0.39223v0.784l-0.78446 0.787-0.39402-1.179 0.39402-0.392h0.39223m-1.1767 1.178-0.39401 0.785h-1.1785l-0.39223-0.785 0.78625-0.786 1.1785 0.786m3.9259 0.393h0.39402v0.392h-1.5707l1.1767-0.392m-1.5707 0.392 0.39401 0.392-1.1803-0.392h0.78625" style="fill:#d0d0d0"/>
  <path id="Kodiak_Island__AK" class="c02150" d="m128.64 582.6 0.78268-1.175 1.1803-0.788 0.39045-0.39 0.39402 0.39 0.39223-0.39 0.78268-1.179 1.5725-1.18-0.39223-3.14 1.5725-0.786 1.9647-0.785 1.1767-0.786v-1.963h1.1803l1.1749-0.396-0.39223-0.784h1.9629l-0.39223-1.178h0.78981l-0.39758 1.178-0.78446 0.784-0.78624 0.396-0.78447 1.177-0.39044 2.749-0.78803 1.179-1.1785 0.784-0.78625-0.392-1.1785 0.392-0.78447 0.788-0.78624 1.963h-0.78268l-1.1803 1.569-0.78446 0.396-0.39402-0.396v0.788l-2.3534 1.571v0.39l0.78268-0.39v1.572h-1.9576v-0.788l0.78268-0.394 0.39223-0.786m16.886-7.067-0.39223 0.392-1.9629-0.785 1.5689-2.358 1.5761-2.75 1.1731-0.39-0.38688 1.571v0.784l1.5707-0.392 0.78446 0.392 0.38867 1.18-0.38867 0.785-3.1414 1.178-1.182-0.786-0.39401 0.394 0.78624 0.785m-4.7139 4.714 0.39401 1.178 0.78446 0.392-0.78446-0.784-0.39401-3.145 0.78624-0.783 2.357-0.394 0.78446-0.394h1.1838l-0.39758 1.18 0.39758 0.391 1.5654-1.571 0.78803-0.392-0.39045 1.572 0.78625 1.179h0.78446l-0.78446 1.571-1.9701 1.964-1.9629 2.357-0.39223 0.392-0.39223-0.786 0.39223-0.788h-0.39223l-1.1749 2.751-1.182 1.18-1.1785 0.391-0.78268-1.177-1.1803-1.963-0.39402-1.182-0.78268-0.786 0.39045-1.963 1.1785-1.177 1.9629-0.392v1.179m-0.39223 8.641 1.5707 0.392-0.39223 0.391h-1.5707l-0.39044-0.391 0.78268-0.392m-1.5707 0 0.78803 0.392-1.9665 1.573v-0.786l1.1785-1.179m-5.1061 6.675 0.78624 0.392v1.573l-1.5707-0.392v-0.787l0.78447-0.786" style="fill:#d0d0d0"/>
  <path id="Bristol_Bay__AK" class="c02060" d="m125.89 568.85h3.1432v2.359l-4.3217 0.392 0.78625-1.177 0.39223-1.574" style="fill:#d0d0d0"/>
  <path id="Dillingham__AK" class="c02070" d="m125.1 568.85v0.394l-4.7121 2.357-0.78625-0.392-1.5707-2.359-0.39402 0.394-0.39223 1.571 0.78625 1.963-1.1803 0.786h-0.78268l-2.3587-4.32-0.78625-0.394-0.39044 1.178h-0.39402l-1.9629-1.567 0.39223-0.395-0.39223-0.393-3.1432 1.965v-1.572h0.78446l0.78803-2.356 0.78447-0.784 0.39223-2.359 0.78624-1.571h1.1785v-1.572l1.1767-2.355 0.78625-1.571h0.78624l1.9647-4.714h4.7121v0.786h0.78625l0.78268-0.786v-1.178h1.5725v0.784h5.1026v0.788l0.3958 2.748 0.39045 7.464h-0.78625v1.177h-1.5671l-0.78624 0.785-0.39402 1.574h-1.1767l-1.1785 0.784 0.78625 3.14m-19.637 1.574v-0.786h1.1767l-1.1767 0.786" style="fill:#d0d0d0"/>
  <path id="Lake_and_Peninsula__AK" class="c02164" d="m128.64 582.6-0.39223 0.786-0.78268 0.394v0.788h1.9576l-4.3163 3.14-0.78625-0.391-0.39223 1.571-2.3552 0.783v0.396h0.39223l0.39223 0.786h-2.357l-0.78447 1.178 1.5689 1.569-1.5689 1.963-5.1061 1.179v1.182l-0.39401 0.782v-2.357h-1.5707l0.39402-0.786v-3.143h-0.39402v-1.567h1.5707v-0.786h1.5725v-0.787h1.1785l0.78446-0.788v-0.388h1.1785l-0.39223-1.573 0.78446-1.571 3.9259-3.927 0.78803-7.465 1.1767-1.963 4.3217-0.392v-2.359h-3.1432l-0.39223-0.389-0.39223 0.783v-0.394l-0.78625-3.14 1.1785-0.784h1.1767l0.39402-1.574 0.78624-0.785h1.5671v-1.177h0.78625l-0.39045-7.464-0.3958-2.748v-0.788l6.2828-0.392 2.357-0.392h2.357l0.78624 3.926h-0.78624l0.39223 3.143h-0.78447l0.39224 0.784v2.359h-0.39224v0.786h-0.78446v0.786l-0.39401 0.785-0.39223 0.392-0.78625 0.785-0.39045 1.574h-1.1803v1.567l0.39223 0.394v0.786l0.39223 2.751h1.5725v1.963l-1.1767 0.786-1.9647 0.785-1.5725 0.786 0.39223 3.14-1.5725 1.18-0.78268 1.179-0.39223 0.39-0.39402-0.39-0.39045 0.39-1.1803 0.788-0.78268 1.175m-2.7492 7.467 0.78446 0.39h-1.5689l0.39223-0.39h0.39223" style="fill:#d0d0d0"/>
  <path id="Kenai_Peninsula__AK" class="c02122" d="m137.28 564.93 0.39045-1.574 0.78625-0.785 0.39223-0.392 0.39401-0.785v-0.786h0.78446v-0.786h0.39224v-2.359l-0.39224-0.784h0.78447l-0.39223-3.143h0.78624l-0.78624-3.926v-0.394l-0.39224-3.534v-0.786h0.39224l1.5707-0.391h1.5707l0.78625-0.395 4.7192-0.393v1.573h1.1767l0.78803 0.392-0.78803 0.786-1.9665 1.571-1.5743 2.749-1.5689 4.322v1.963l-1.9629 3.139-1.9647 1.182-1.1785 1.568-1.1785 0.786-0.39223 2.357 0.39223 0.786 0.39401-0.394 1.5689-0.392 1.9683 1.572v0.393h-0.78981l0.39223 1.178h-1.9629l0.39223 0.784-1.1749 0.396h-2.7528l-0.39223-2.751v-0.786l-0.39223-0.394v-1.567h1.1803m11.393-2.359 2.7438-1.963 0.79159-1.572h-0.79159l-1.1731 1.176-0.78625-0.39-0.78446-0.786 0.39401-2.357 0.77912-1.963 0.39758-1.574v-1.568l-0.78625-1.572 1.5743-0.786 2.3534-2.357 0.78802 0.786h1.1767l1.1767-0.786 1.1785 0.394h1.5725l0.39223 0.392 1.1803 0.786h0.78268v0.394l0.39402 1.569v0.394l0.39223 0.394 0.39401 3.534v0.394l-3.1432 0.392-1.5689 0.785v2.358l-2.751 2.355-0.39223-0.392-0.78447 0.786-0.78802 1.962-3.539 1.18-1.1731-0.788v-1.177" style="fill:#d0d0d0"/>
  <path id="Anchorage__AK" class="c02020" d="m156.52 546.86-1.9629-1.569 0.39402-0.394v-0.391h0.39223l0.78624-1.572 0.39045-0.391h0.3958l0.39045-0.395h0.39223l0.3958 0.395 3.1414-0.788v1.179l0.39045 1.177v1.18l0.39402 0.392v1.571h-1.1767v0.786l0.39223 0.392h-0.39223l-1.1803-0.786-0.39223-0.392h-1.5725l-1.1785-0.394" style="fill:#d0d0d0"/>
  <path id="Valdez-Cordova__AK" class="c02261" d="m162.02 546.47v-0.786l-0.39402-0.392v-1.18l-0.39045-1.177v-1.179l3.1396-0.394 2.3587-0.39-0.39401-0.396h0.39401l0.78268-0.39-0.78268-4.32v-0.394l-0.78624-1.965 1.9647-0.392 0.39045-0.391-0.39045-1.18v-0.392l-1.1785-5.106-0.39401-1.179 1.5725-0.786 1.1767-0.394h0.39224l0.78446-0.39h1.1803l1.1785 0.39h0.39223l6.6786-1.569 0.78446 1.179 0.39223 1.963v1.178h1.1785l0.39399-1.178h1.569l1.9647 1.178 0.78448 2.751 0.78801 0.392v0.392l0.39224 1.571 3.1414-1.18 3.9277 13.355h-0.78626l-2.7492 0.788v-0.788h-0.78446l-5.1026 1.573-1.9665 5.104-5.1079-1.569v-1.18l-1.5707 0.786 0.78625 0.785-3.1432-1.177-3.5336 3.143-0.78803-1.18 0.3958-1.177h0.78446l1.5707-0.786 0.78624-0.786v-0.785l-1.9647 0.785h-1.5725l-0.39045-0.394 1.5707-1.177 0.39223-0.392-1.5725 0.784-0.39045-0.784-0.39401 0.392v-1.965l-2.3552 1.179-0.39224 1.178-2.7492 1.179h-0.3958l0.3958-2.357-0.78625 0.394-0.39223 1.963 1.1785 0.392 1.1785 2.749-0.39402 1.573 1.5707 1.569-0.78625 1.18-2.7474 0.394v-0.394l-0.39401-3.534-0.39223-0.394v-0.394l-0.39402-1.569v-0.394h-0.39045l-0.39223-0.392v-0.786h1.1767v-0.785m5.8924-0.786v0.392h-0.78624l0.78624-0.392m-1.1785 1.963 0.78268 0.394-0.78268 0.392v-0.786m-2.3587 0 0.78803 0.394-0.39402 0.392-0.39401-0.392v-0.394m1.9647 1.18v3.928l-1.1767-0.786 0.39044-1.965 0.78625-1.177m2.7492 3.142-0.78624 1.175-0.39045 2.36-1.5725 0.785v-1.571l1.9629-3.142v-0.786l0.39401-0.394 1.1785 0.394-0.78625 1.179" style="fill:#d0d0d0"/>
  <path id="Matanuska-Susitna__AK" class="c02170" d="m157.7 542.15h-0.39223l-0.39045 0.395h-0.3958l-0.39045 0.391-0.78624 1.572h-0.39223v0.391h-3.1432l-0.78268 0.786-0.78803-0.392h-1.1767v-1.573l-4.7192 0.393-0.78625 0.395h-1.5707v-0.788l-0.39223-0.394v-3.533l-0.39223-0.393v-2.749l-0.39401-3.926 4.3217-0.395v-0.785l9.4296-6.284 5.5002-0.789v-0.39l-0.39402-0.784 4.3217-0.787 1.9629-0.392 0.39223 2.749 0.39401 1.179 1.1785 5.106v0.392l0.39045 1.18-0.39045 0.391-1.9647 0.392 0.78624 1.965v0.394l0.78268 4.32-0.78268 0.39h-0.39401l0.39401 0.396-2.3587 0.39-3.1396 0.394-3.1414 0.788-0.3958-0.395" style="fill:#d0d0d0"/>
  <path id="SE_Fairbanks__AK" class="c02240" d="m169.09 523.69-1.1767 0.394-1.5725 0.786-0.39223-2.749-1.9629 0.392-1.5725-7.071 2.357-0.788 0.78446-1.173 1.1803-0.788h1.1785l4.7121-3.533h1.5707v-0.394l0.78625-1.179-0.78625-1.178 0.39224-0.785 0.39401-0.786 1.1767-0.788 0.39402-2.355h0.39223l1.1785-1.177 1.1785-0.394 1.1785-1.571v-1.176l0.78623-1.179 9.8183 34.169-3.1414 1.18-0.39224-1.571v-0.392l-0.78801-0.392-0.78448-2.751-1.9647-1.178h-1.569l-0.39399 1.178h-1.1785v-1.178l-0.39223-1.963-0.78446-1.179-6.6786 1.569h-0.39223l-1.1785-0.39h-1.1803l-0.78446 0.39h-0.39224" style="fill:#d0d0d0"/>
  <path id="Fairbanks_North_Star__AK" class="c02090" d="m155.74 513.48v-0.392l-1.1785-5.108h0.39402l3.9277-0.786 0.39223-0.786h1.5725l0.78268-0.785 0.78625-1.178 0.78624-0.396 0.78625 0.396v0.788l0.78446 0.784h0.39402l0.78446 1.177 0.39223 0.392 4.3217-1.569 1.9629-0.394-0.39224 0.785 0.39224 2.751-4.7121 3.533h-1.1785l-1.1803 0.788-0.78446 1.173-2.357 0.788-2.7492 0.396-1.1785-0.396h-0.39044l-1.5743-1.961h-0.78446" style="fill:#d0d0d0"/>
  <path id="Denali__AK" class="c02068" d="m154.56 525.26-9.4296 6.284v0.785l-4.3217 0.395 1.5707-4.323v-1.179l-1.5707-0.39-0.39223-2.361 2.3605-0.39 0.7809-1.571-0.39045-1.572 1.1767-1.177h0.78624l1.182 0.392 1.5707-3.141 5.8906-0.786 4.7139-0.787 1.1785 0.396 2.7492-0.396 1.5725 7.071-4.3217 0.787 0.39402 0.784v0.39l-5.5002 0.789" style="fill:#d0d0d0"/>
  <path id="Bethel__AK" class="c02050" d="m140.02 545.68 0.39224 3.534v0.394h-2.357l-2.357 0.392-6.2828 0.392h-5.1026v-0.784h-1.5725v1.178l-0.78268 0.786h-0.78625v-0.786h-4.7121l-1.9647 4.714h-0.78624l-0.78625 1.571-1.1767 2.355v1.572h-1.1785l-0.78624 1.571-0.39223 2.359-0.78447 0.784-0.78803 2.356h-0.78446v1.572h-1.5689v1.571l-1.1785 0.392-2.7545-0.392 0.78625-0.394 0.78803 0.394 0.39401-1.571-0.39401-2.359-0.78803-1.569 1.5689-1.966-0.7809-2.354v-0.394l-1.9647-3.927-0.78268 1.572-2.7545 1.567-2.751 0.396-1.5707-0.786-0.39223-1.177-1.5707-2.358-3.5354-3.145 2.357-1.568-0.39223-1.18h-0.78624v-0.392l0.39223-0.392h2.3587l1.9629-0.394 1.9647-3.142 3.9312-0.784 0.39045-0.394 1.1785-0.391 2.3587 0.785 3.5336-0.785 1.1803-1.182 1.9629-1.176-0.39401-0.787h5.1044v-0.786h3.145v-0.784l6.2828-0.393v0.787h5.8888l1.9629-0.394h3.5336l1.5743-0.393h0.78268v-0.786l1.5743-0.39v-0.396l0.39044-0.39h0.78447l0.39401-0.787v2.749l0.39223 0.393v3.533l0.39223 0.394v0.788l-1.5707 0.391h-0.39224v0.786m-85.23 1.963 0.3958 1.18 0.38867 0.785 1.5725 0.784 0.3958 0.394h-1.5743l-0.39401-0.786-1.1713-1.571 0.38688-0.786m28.672 6.679 1.1767-0.394 1.9647 1.572-0.39223 2.355-0.39223 0.788-1.9629 0.783-3.9277-1.965-1.1803-1.176v-0.785l0.39401-0.392h2.3552l1.5725-1.18 0.39223 0.394" style="fill:#d0d0d0"/>
  <path id="Kusilvak__AK" class="c02270" d="m109.78 541.36 0.39401 0.787-1.9629 1.176-1.1803 1.182-3.5336 0.785-2.3587-0.785-1.1785 0.391-0.39045 0.394-3.9312 0.784-1.9647 3.142-1.9629 0.394h-2.3587v-0.394l0.78625-0.391 0.39401-0.786-1.5725-0.786-0.39223 0.786-1.1785-0.394-1.9629-3.928 0.39223-2.357 4.3199-5.496 1.9629-1.574-0.39045-1.177 0.78446-1.963 1.5707-1.963 1.5725-0.394 2.7492 2.357 1.182-0.394 1.9594-1.963 0.78625 0.394 1.5689 2.355h4.7192-0.39223l-0.3958 1.18-0.39044 3.142v3.143h0.78624l-0.3958 1.177v0.786l0.3958 0.39h1.5689" style="fill:#d0d0d0"/>
  <path id="Nome__AK" class="c02180" d="m112.92 522.9v1.567h-0.78446v0.789l-0.78446 0.786h-1.5725l-0.78625 0.786v2.357h-0.39045v2.355h-4.7192l-1.5689-2.355-0.78625-0.394 1.182-1.573 1.1731 0.394h1.5778l1.9629-0.394 1.1785-2.355 0.39045-1.18-1.1785-3.534-0.78446-1.178v-1.179h0.78446l1.1785-0.784v-1.177l-1.5689-1.574-0.78625 1.178-3.1414 0.787-1.5743 1.176-6.2846-0.39-3.1432 0.784-4.3199-1.57-0.78625-0.787-0.39223-0.788 0.39223-1.173-0.39223-2.358 0.39223-0.394 0.39223-1.175-3.5354-1.573-2.3552-1.572v-1.175l7.0691-3.931 0.78624 0.786 1.9647 0.394v-0.394l-1.1785-0.786v-0.785l5.4966-1.965 0.3958 3.93v3.141l0.78625 0.394v1.177l0.39045 0.392h0.3958v1.573l13.748 0.394h0.78625v-0.788h1.5707v2.357h-0.39401v3.141h-0.78625v1.574h-0.78446v6.283h0.78446v0.786m-22.783-21.999-0.39223 0.395v-0.395h0.39223m-9.426 10.607 0.78446-0.392 0.39402 0.784-0.78446 0.396-0.39401-0.788m-15.315 9.426 0.38867-0.785v1.179l2.357 1.572 1.9647-1.18 0.78446 0.394 0.78625 0.786v1.177l1.9629 1.573 3.1432 0.784-0.78625 1.571-1.5707-0.787-1.1767 0.787-1.1803-0.393-2.3552-2.749-1.5725-0.786h-0.78446l-1.5725 0.786-1.1731-0.786v-0.784l0.78446-2.359m36.918 4.716v0.784h-1.1767l0.39044-0.784h0.78625" style="fill:#d0d0d0"/>
  <path id="Yukon-Koyukuk__AK" class="c02290" d="m140.41 537.44h-0.39224l-0.39044 0.39v0.396l-1.5743 0.39v0.786h-0.78268l-1.5743 0.393h-3.5336l-1.9629 0.394h-5.8888v-0.787l-6.2828 0.393v0.784h-3.145v0.786h-6.6733l-0.3958-0.39v-0.786l0.3958-1.177h-0.78624v-3.143l0.39044-3.142 0.3958-1.18h0.39223v-2.355h0.39045v-2.357l0.78625-0.786h1.5725l0.78446-0.786v-0.789h0.78446v-2.353h-0.78446v-6.283h0.78446v-1.574h0.78625v-3.141h0.39401v-2.357h-0.78446v-3.928h2.3552v-1.569h3.9277v-3.534h3.1396v1.568h1.5725v-1.568h1.5707l0.78446 0.783v0.785l1.5725-0.395v-2.355h2.3552l-0.39401-0.786 1.5707-0.784h0.78268l0.39579-1.571-0.39579-2.357-0.78268-0.786h-1.5707v-2.354l-1.5689-1.572v-0.786h-0.78446v-1.963h1.1785l18.454-1.962h0.39758l8.2493-1.576 3.1414-0.786-0.78625-4.318 16.103-3.928 6.6786 23.174-0.78623 1.179v1.176l-1.1785 1.571-1.1785 0.394-1.1785 1.177h-0.39223l-0.39402 2.355-1.1767 0.788-0.39401 0.786-0.39224 0.785 0.78625 1.178-0.78625 1.179v0.394h-1.5707l-0.39224-2.751 0.39224-0.785-1.9629 0.394-4.3217 1.569-0.39223-0.392-0.78446-1.177h-0.39402l-0.78446-0.784v-0.788l-0.78625-0.396-0.78624 0.396-0.78625 1.178-0.78268 0.785h-1.5725l-0.39223 0.786-3.9277 0.786h-0.39402l1.1785 5.108v0.392h0.78446l1.5743 1.961h0.39044l-4.7139 0.787-5.8906 0.786-1.5707 3.141-1.182-0.392h-0.78624l-1.1767 1.177 0.39045 1.572-0.7809 1.571-2.3605 0.39 0.39223 2.361 1.5707 0.39v1.179l-1.5707 4.323 0.39401 3.926-0.39401 0.787h-0.39223" style="fill:#d0d0d0"/>
  <path id="Houston__AL" class="c01069" d="m730.4 455.3 6.4433-0.587-0.20859 0.61-0.1355 0.595 0.27278 1.632 0.19968 0.465 0.16937 0.1h0.16938l0.14619 0.04 0.92888 1.022 0.14619 0.262 0.21216 0.458 0.57587 1.665-9.4974 1.156-0.15333-1.822-0.31556-2.814-1.9362 0.33-2.4425 0.257 0.69353-1.744 0.11054-0.1 0.4582-0.152 0.32983-0.02 0.312 0.02 0.6668 0.159 0.50811 0.137 0.88431 0.08 0.29774-0.03-0.10533-0.92153 1.3498-0.14547-0.0802-0.658" style="fill:#d0d0d0"/>
  <path id="Henry__AL" class="c01067" d="m729.63 448.33-0.21751-2.002 3.8884-0.337 0.10341-0.176 0.29774-0.892 0.51525-0.651 0.0981-0.06h0.11053l0.32983 0.104 0.18542 0.162 2.1377 5.329-0.24247 4.901-6.4433 0.587-0.76307-6.968" style="fill:#d0d0d0"/>
  <path id="Geneva__AL" class="c01061" d="m723.4 458.81 1.5743-0.144 2.4425-0.257 1.9362-0.33 0.31556 2.813 0.15333 1.823-0.19611 0.03-10.499 1.215-2.9827 0.296-0.58478-4.525 7.8411-0.924" style="fill:#d0d0d0"/>
  <path id="Dale__AL" class="c01045" d="m723.2 449.07 6.4379-0.74 0.76307 6.968 0.0802 0.658-1.3498 0.14547 0.10533 0.92153-0.29774 0.03-0.88431-0.08-0.50811-0.137-0.6668-0.159-0.312-0.02-0.32983 0.02-0.4582 0.152-0.11054 0.1-0.69353 1.744-1.5743 0.144-0.99484-9.651 0.79338-0.09" style="fill:#d0d0d0"/>
  <path id="Coffee__AL" class="c01031" d="m722.4 449.16 0.99484 9.651-7.8411 0.924-0.60261-5.672-0.22642-2.059 0.73989-0.08 0.23177-0.193-0.23177-1.833 6.9354-0.74" style="fill:#d0d0d0"/>
  <path id="Covington__AL" class="c01039" d="m708.81 452.72 1.9291-0.243 0.20274 1.6791 1.7548-1.9101 0.36193-0.03 0.082 0.335 0.15333 1.325 0.32983 0.3 1.3264-0.113 0.60261 5.672 0.58478 4.525-3.9455 0.401-5.8995 0.565-0.65075-4.493-0.76842-7.586 3.9366-0.426" style="fill:#d0d0d0"/>
  <path id="Mobile__AL" class="c01097" d="m680.81 463.69 0.16046 0.321 0.42788 1.817 0.58657 3.121-0.83795 1.548-0.55447 2.168-0.0374 0.49 0.33518 0.811 0.42789 0.822-0.28348-0.1-0.0731 0.05-0.9057 0.963-0.54734 3.368-1.7276 3.334-1.1482-0.367-1.6082-0.03-0.44036 0.07-0.2086 0.07-0.37084 0.392-1.0198-8.363-0.73811-5.996-0.34053-2.655 2.0004-0.158 1.9701-0.617 3.9936-0.564 0.93958-0.506" style="fill:#d0d0d0"/>
  <path id="Baldwin__AL" class="c01003" d="m684.61 460.25 3.0237 0.957 0.83439 5.632-0.44394 3.078 0.25852 0.438 2.0004 2.181 0.62935 0.433 0.11054 0.04 0.32983 0.06 0.66679 0.344 0.88431 0.547 0.24068 0.394 0.0713 0.273 0.0321 0.378-0.19968 5.023-0.26565 2.513-1.2694 0.573-2.6761 0.946-2.8044 0.708-0.74703 0.12-2.4586 0.155-0.0963-0.129 1.0198-0.37 2.6672-1.705-3.5354-7.176-0.25674-0.36-0.11945-0.1-0.9164-0.33-0.27277-0.09-0.42789-0.822-0.33518-0.811 0.0374-0.49 0.55447-2.168 0.83795-1.548-0.58657-3.121-0.42788-1.817-0.16046-0.321 0.45998-0.74 3.3411-2.699" style="fill:#d0d0d0"/>
  <path id="Escambia__AL" class="c01053" d="m705.65 460.73 0.65075 4.493-1.8863 0.142-7.3936 0.66-8.5489 0.811-0.83439-5.632 1.1464 0.296 0.19433-0.08 1.0911-0.77 1.2213-0.141 12.961-1.234-0.0321 0.152-0.0214 1.004 0.0214 0.208 0.066 0.09 0.15868 0.136 0.89143 0.02 0.31379-0.161" style="fill:#d0d0d0"/>
  <path id="Conecuh__AL" class="c01035" d="m704.88 453.15 0.76842 7.586-0.31379 0.16-0.89143-0.02-0.15868-0.135-0.066-0.09-0.0214-0.208 0.0214-1.004 0.0321-0.152-12.961 1.234 9e-3 -0.132 0.13015-0.314 2.1198-3.007 1.1892-1.334 1.3906-4.074 0.0571-0.417 2.0004-1.808 1.6456-0.907 0.44394-0.218 0.11945-0.02 0.25139 2.749 1.0358 1.951 0.51347 0.387 2.685-0.225" style="fill:#d0d0d0"/>
  <path id="Washington__AL" class="c01129" d="m670.21 452.2 7.3133-0.627 0.0232 0.973 0.34765 1.261 1.0038 0.861 0.26565 0.16 0.8112 0.282 0.72385 0.182 0.76307 0.701 0.55269 2.234 0.025 0.144-0.0553 0.749-0.1872 0.706-0.39223 0.41-0.34588 0.465-0.27278 0.925 0.48316 1.325-0.45998 0.74-0.93958 0.506-3.9936 0.564-1.9701 0.617-2.0004 0.158-1.6955-13.336" style="fill:#d0d0d0"/>
  <path id="Choctaw__AL" class="c01023" d="m669.92 438.11 9.476-0.829-0.90034 0.128-0.50099 0.314-0.26387 0.289-1.4691 5.48 0.0891 0.845 0.0963 0.232 0.14263 0.159 0.16046 0.09 0.4992 0.06 0.27278 6.7-7.3133 0.627-0.46533-4.507 0.13015-7.707 0.0464-1.879" style="fill:#d0d0d0"/>
  <path id="Clarke__AL" class="c01025" d="m685.11 444.17 3.5675 3.432-0.30487 0.369 0.30281 2.6192-1.0035 0.15178 0.28883 3.081 0.25138 2.248-0.14441 0.699-0.41184 0.547-0.23356 0.137-0.25673-0.04-0.41006-0.315-0.23891 0.02-0.21751 0.08-1.7971 1.526-0.3334 0.834v0.105l0.0499 0.241 0.0713 0.135 0.32092 0.211-3.3411 2.699-0.48316-1.325 0.27278-0.925 0.34588-0.465 0.39223-0.41 0.1872-0.706 0.0553-0.749-0.025-0.144-0.55269-2.234-0.76307-0.701-0.72385-0.182-0.8112-0.282-0.26565-0.16-1.0038-0.861-0.34765-1.261-0.0232-0.973-0.27278-6.7 7.8589-0.701" style="fill:#d0d0d0"/>
  <path id="Monroe__AL" class="c01099" d="m700.2 446.5 0.19255 1.783-0.11945 0.02-0.44394 0.218-1.6456 0.907-2.0004 1.808-0.0571 0.417-1.3906 4.074-1.1892 1.334-2.1198 3.007-0.13015 0.314-9e-3 0.132-1.2213 0.141-1.0911 0.77-0.19433 0.08-1.1464-0.296-3.0237-0.957-0.32092-0.21-0.0713-0.136-0.0499-0.241v-0.105l0.3334-0.834 1.7971-1.526 0.21751-0.08 0.23891-0.02 0.41006 0.315 0.25673 0.04 0.23356-0.137 0.41184-0.547 0.14441-0.699-0.25138-2.248-0.28883-3.081 1.0035-0.15178-0.30281-2.6192 0.30487-0.369 5.2006-0.529 2.8276-0.209 3.4944-0.362" style="fill:#d0d0d0"/>
  <path id="Wilcox__AL" class="c01131" d="m688.34 437.55 0.5206-0.139 0.12123 0.07 2.4015 1.68 3.0951 2.852 5.247-0.506 0.92303-0.11706 0.218 1.9981-0.99696 0.14541 0.33017 2.9656-3.4944 0.362-2.8276 0.209-5.2006 0.529-3.5675-3.432 0.80407-0.403-0.24247-2.906 1.9272-0.2218-0.23168-2.7662 0.16224-0.276 0.17473-0.06 0.33696-0.02 0.29952 0.04" style="fill:#d0d0d0"/>
  <path id="Butler__AL" class="c01013" d="m700.87 443.39 7.9249-0.836 0.61866 5.659 0.0874 1.421-0.98771 0.103 0.30487 2.983-3.9366 0.426-2.685 0.225-0.51347-0.387-1.0358-1.951-0.25139-2.749-0.19255-1.783-0.33017-2.9656 0.99696-0.14541" style="fill:#d0d0d0"/>
  <path id="Crenshaw__AL" class="c01041" d="m713.76 442 0.37075 3.2224 0.91292-0.13489 0.37374 3.798-0.59632 1.0819 0.65047-0.0674 0.23177 1.833-0.23177 0.193-0.73989 0.08 0.22642 2.059-1.3264 0.113-0.32983-0.3-0.15333-1.325-0.082-0.335-0.36193 0.03-1.7548 1.9101-0.20274-1.6791-1.9291 0.243-0.30487-2.983 0.98771-0.103-0.0874-1.421-0.61866-5.659 0.60974-2.058 1.9843-0.224 0.23534 1.986 2.1359-0.259" style="fill:#d0d0d0"/>
  <path id="Pike__AL" class="c01109" d="m717.31 439.67 0.79516-0.332 0.84508 0.07 0.36014 0.129 0.93244 1.76 1.2022-0.18217 0.25979 2.0392 2.5887-0.283-1.1018 6.197-0.79338 0.09-6.9354 0.74-0.65047 0.0674 0.59632-1.0819-0.37374-3.798-0.91292 0.13489-0.37075-3.2224 3.7987-0.52452-0.2401-1.8035" style="fill:#d0d0d0"/>
  <path id="Bullock__AL" class="c01011" d="m727.73 434.28 0.6757 1.972-0.312 0.2 0.16759 2.009 0.12837 0.843-1.5832 0.53-1.5244 0.572-0.8843 1.735-0.1141 0.556 0.016 0.182-2.5887 0.283-0.25979-2.0392-1.2022 0.18217-0.93244-1.76-0.36014-0.129-0.84508-0.07-0.79516 0.332-0.66652-5.0638 1.6221-0.21722 1.1838 0.779 0.15867 0.06 8.1156-0.95" style="fill:#d0d0d0"/>
  <path id="Macon__AL" class="c01087" d="m721.77 426.56 0.041 0.323 4.1701 1.51 0.97345-0.112 0.31378 1.993 0.45642 4.008-8.1156 0.95-0.15867-0.06-1.1838-0.779-2.3552-3.125 2.4604-1.953 1.7044-0.21-0.17158-2.2839 1.8653-0.26408" style="fill:#d0d0d0"/>
  <path id="Lowndes__AL" class="c01085" d="m700.85 434.63 0.52594-1.197 0.0606-0.107 0.85043-0.151 2.307-0.273 2.3783 1.038 2.4283 6.562-0.60974 2.058-7.9249 0.836-0.218-1.9981-0.92303 0.11706 1.125-6.885" style="fill:#d0d0d0"/>
  <path id="Montgomery__AL" class="c01101" d="m708.48 432.27 2.6493-2.404 0.21751 0.03 0.28348 0.1 0.15154 0.102 0.9164 0.989-0.0892 0.154 1.5261 0.289 1.3354 0.112 0.4475-0.369 2.3552 3.125-1.6221 0.21722 0.66652 5.0638 0.2401 1.8035-3.7987 0.52452-2.1359 0.259-0.23534-1.986-1.9843 0.225-2.4283-6.563 1.5048-1.665" style="fill:#d0d0d0"/>
  <path id="Elmore__AL" class="c01051" d="m715.41 423.55 2.3712-0.24 0.0553 0.02 0.041 0.306-0.17829 0.674 0.54913 4.75 0.0624 0.184 0.0642 0.07-2.4604 1.952-0.4475 0.369-1.3354-0.112-1.5261-0.289 0.0892-0.154-0.9164-0.989-0.15154-0.102-0.28348-0.1-0.21751-0.03-2.6493 2.403-0.73276-6.821 0.57943-1.15 7.0869-0.747" style="fill:#d0d0d0"/>
  <path id="Autauga__AL" class="c01001" d="m707.74 425.45 0.73276 6.822-1.5048 1.665-2.3783-1.038-2.307 0.273-0.85043 0.151-0.0606 0.107-0.52594 1.197-2.6743-7.232 1.9344-0.1 1.9772-0.224-0.10876-1.011 5.7658-0.612" style="fill:#d0d0d0"/>
  <path id="Dallas__AL" class="c01047" d="m696.09 426.08 0.15862 1.4405 1.9238-0.12851 2.6743 7.232-1.125 6.885-5.247 0.506-3.0951-2.852-2.4015-1.68-0.12123-0.07-0.5206 0.139-0.10341-0.982 0.98593-0.09-0.39223-4.012 3.334-0.335 2.6262-0.348 0.15511-0.328 0.52238-1.815 0.29596-1.394 0.32983-2.161" style="fill:#d0d0d0"/>
  <path id="Marengo__AL" class="c01091" d="m681.25 432.17 1.5903-0.137 0.10341 1.005 3.9384-0.378 0.37852 3.9938 0.97289-0.0818 0.10341 0.982-0.29952-0.04-0.33696 0.02-0.17473 0.06-0.16224 0.276 0.23168 2.7662-1.9272 0.2218 0.24247 2.906-0.80407 0.403-7.8589 0.701-0.4992-0.06-0.16046-0.09-0.14263-0.159-0.0963-0.232-0.0891-0.845 1.4691-5.48 0.26387-0.289 0.50099-0.314 0.90034-0.128-0.84686-0.708-1.4762-0.563-0.041-0.136 0.0339-0.923 0.10341-0.289 2.1448-2.179 0.16046-0.112 0.97166-0.305 0.80586 0.105" style="fill:#d0d0d0"/>
  <path id="Sumter__AL" class="c01119" d="m670.22 422.29 3.2199-0.376-0.2086 1.959 0.3851 1.68 2.316 4.862 0.4582 0.563 0.0624 0.02 0.8219-0.241 0.64005-0.297 0.14619-0.145 0.37084-0.258 0.32805-0.161h0.16937l0.19968 0.121 1.3175 2.042-0.97166 0.305-0.16046 0.112-2.1448 2.179-0.10341 0.288-0.0339 0.924 0.041 0.135 1.4762 0.564 0.84686 0.708-9.476 0.829 0.13728-6.246 0.1355-8.131 0.0267-1.439" style="fill:#d0d0d0"/>
  <path id="Perry__AL" class="c01105" d="m688.05 423.46 1.9505-0.194 0.0963 1.005 1.3282-0.128 4.4108-0.537 0.25673 2.471-0.32983 2.161-0.29596 1.394-0.52238 1.815-0.15511 0.328-2.6262 0.348-3.334 0.335 0.39223 4.012-0.98593 0.09-0.97291 0.0857-0.3785-3.9977-0.37619-3.984 0.96992-0.12311-0.20685-2.8689 0.97794-0.12737-0.19883-2.0886" style="fill:#d0d0d0"/>
  <path id="Chilton__AL" class="c01021" d="m705.03 418.46 1.1089 3.6565 2.1876 2.1855-0.57943 1.15-5.7658 0.612 0.10876 1.011-1.9772 0.224-1.9344 0.1-1.9238 0.12851-0.15862-1.4405-0.25673-2.471 2.7403-0.242-0.32983-3.391-0.24247-1.51-0.0553-0.509 3.0844-0.235 2.1074-0.11 0.32804 0.442 0.61866 0.385 0.93957 0.02" style="fill:#d0d0d0"/>
  <path id="Coosa__AL" class="c01037" d="m711.38 416.1 3.1398-0.3628 0.89488 7.817-7.0869 0.747-2.1876-2.1855-1.1089-3.6565 0.30487-1.945 6.0439-0.41421" style="fill:#d0d0d0"/>
  <path id="Tallapoosa__AL" class="c01123" d="m721.3 414.75 1.1517-0.137 0.95562 8.687-1.9594 0.25458 0.32629 2.9974-1.8653 0.26408 0.17158 2.2839-1.7044 0.211-0.0642-0.07-0.0624-0.184-0.54913-4.75 0.17829-0.674-0.041-0.306-0.0553-0.02-2.3712 0.24-0.89488-7.817 6.7837-0.98099" style="fill:#d0d0d0"/>
  <path id="Clay__AL" class="c01027" d="m716.56 406.16-0.62757 0.579 0.0143 0.168 1.995-0.209 0.29061-0.363-0.0339-0.344 2.3213-0.195 0.77912 8.954-6.7837 0.98099-3.1398 0.3707-0.18377-2.3397 1.6746-0.20833-0.10734-2.2677 2.067-0.20406-0.0826-2.0069 0.74875-0.32771 0.0553-2.4773 1.0127-0.11" style="fill:#d0d0d0"/>
  <path id="Talladega__AL" class="c01121" d="m710.55 402.61 1.8096-0.09 0.54378 0.601 0.17829 0.861 0.54734 0.451 3.8011-0.378 0.0463 0.674-0.91461 1.432-1.0127 0.11-0.0553 2.4773-0.74875 0.32771 0.0826 2.0069-2.067 0.20406 0.10737 2.2686-1.6746 0.20925 0.18371 2.3378-6.0439 0.40631-0.0802-1.469 2.1787-3.206 0.17829-1.391-0.26743-0.385-0.52951-0.379 2.0342-2.498 0.79338-1.712-0.0874-0.112-0.19255-0.426-9e-3 -0.12 0.88431-2.027 0.31378-0.176" style="fill:#d0d0d0"/>
  <path id="Shelby__AL" class="c01117" d="m703.83 406.39 2.981 3.293 0.52951 0.379 0.26743 0.385-0.17829 1.391-2.1787 3.206 0.0802 1.469-0.30487 1.945-0.93957-0.02-0.61866-0.385-0.32804-0.442-2.1074 0.11-3.0844 0.235 0.0553 0.509-1.6755-0.6542-0.59683-1.929-0.85043-0.18068-0.0828-1.4891 0.90035-0.315 0.55447-0.303 0.39401-0.291 0.71672-1.253 3.6531-3.543 1.3282-0.146 1.5261-1.476-0.041-0.499" style="fill:#d0d0d0"/>
  <path id="Bibb__AL" class="c01007" d="m694.05 414.28 0.74702-0.07 0.0828 1.4891 0.85043 0.18068 0.59683 1.929 1.6755 0.6542 0.24247 1.51 0.32983 3.391-2.7403 0.242-4.4108 0.537-1.3282 0.128-0.0963-1.005-1.9505 0.194-0.28347-2.965 1.9772-0.242-0.0553-2.033 0.48138-0.948 1.5084-0.16609-0.0607-1.4409 0.81833-0.909 0.16046-0.1 1.2534-0.369 0.20147-0.02" style="fill:#d0d0d0"/>
  <path id="Hale__AL" class="c01065" d="m682.14 420.92 5.6232-0.424 0.28347 2.965 0.19883 2.0886-0.97794 0.12737 0.20685 2.8689-0.96992 0.12311 0.37619 3.984-3.9384 0.378-0.10341-1.005-1.5903 0.137 1.0216-2.154-0.95027-1.134-0.75416-2.242-0.34944-1.751-0.0303-0.49 1.954-3.472" style="fill:#d0d0d0"/>
  <path id="Greene__AL" class="c01063" d="m679.52 417.75 0.28074 3.3516 2.3401-0.17864-1.954 3.472 0.0303 0.49 0.34944 1.751 0.75416 2.242 0.95027 1.134-1.0216 2.154-0.80586-0.105-1.3175-2.041-0.19968-0.122h-0.16937l-0.32805 0.161-0.37084 0.258-0.14619 0.145-0.64005 0.297-0.8219 0.241-0.0624-0.02-0.4582-0.563-2.316-4.862-0.3851-1.68 0.2086-1.959-0.0232-0.103 1.6563-1.118 1.453-0.811 0.64362-0.227 2.3534-1.904" style="fill:#d0d0d0"/>
  <path id="Pickens__AL" class="c01107" d="m678.73 409.22 0.79516 8.535-2.3534 1.904-0.64362 0.226-1.453 0.812-1.6563 1.117 0.0232 0.104-3.2199 0.376 0.1355-6.896 0.10519-5.704 6.2579-0.288 2.0093-0.186" style="fill:#d0d0d0"/>
  <path id="Tuscaloosa__AL" class="c01125" d="m686.49 406.73 0.34231-0.02 1.6812 0.177 0.16046 1.679 0.98058-0.06-0.66679 0.589 0.33696 1.116 1.2872 1.405 0.76842 0.666 1.7615 1.054 0.90749 0.933-0.20147 0.02-1.2534 0.369-0.16046 0.1-0.81833 0.909 0.0607 1.4409-1.5084 0.16609-0.48138 0.948 0.0553 2.033-1.9772 0.242-5.6232 0.424-2.3401 0.17864-0.28074-3.3516-0.79516-8.535 1.9059-0.06 1.4049-0.16-0.0981-1.181 0.64988-0.047-0.0615-0.86002 3.9633-0.177" style="fill:#d0d0d0"/>
  <path id="Jefferson__AL" class="c01073" d="m694.94 401 1.2516-0.772 2.3712-0.167 2.1608 1.26 1.4388 0.139 0.66679-0.06 0.43502 0.972 0.14442 1.501-0.12124 0.513-0.16046 0.02-0.12836 0.344 0.11945 1.336 0.18542 0.167 0.52238 0.138 0.041 0.499-1.5261 1.476-1.3282 0.146-3.6531 3.543-0.71672 1.253-0.39401 0.291-0.55447 0.303-0.90035 0.315-0.74702 0.07-0.90749-0.933-1.7615-1.054-0.76842-0.666-1.2872-1.405-0.33696-1.116 0.66679-0.589 0.42611-0.24 0.54555-0.402 2.0895-2.305 0.40293-0.709 0.34409-0.697 1.2141-2.468 0.26564-0.692" style="fill:#d0d0d0"/>
  <path id="Walker__AL" class="c01127" d="m690.83 397.26 0.65899 2.2488 3.1742 0.52415 0.28169 0.971-0.26564 0.692-1.2141 2.468-0.34409 0.697-0.40293 0.709-2.0895 2.306-0.54555 0.401-0.42611 0.24-0.98058 0.06-0.16046-1.679-1.6812-0.177-0.34231 0.02-0.18542-2.002-1.9861 0.113-0.42254-4.031-1.9879 0.07-0.082-0.997-0.18364-2.002 9.1854-0.626" style="fill:#d0d0d0"/>
  <path id="Lamar__AL" class="c01075" d="m670.75 397.52 4.1719-0.209 0.057 0.69861 0.66681-0.0636 0.32092 3.753 0.57052 5.584 0.18363 2.122-6.2579 0.288 0.10162-4.894 0.18542-7.279" style="fill:#d0d0d0"/>
  <path id="Fayette__AL" class="c01057" d="m675.84 400.3 5.9851-0.41 0.082 0.997 1.9879-0.07 0.42254 4.031 1.9861-0.113 0.18542 2.002-3.9633 0.177 0.0615 0.86002-0.64988 0.047 0.0981 1.181-1.4049 0.16-1.9059 0.06-2.0093 0.186-0.18363-2.122-0.57052-5.584-0.12124-1.398" style="fill:#d0d0d0"/>
  <path id="Franklin__AL" class="c01059" d="m671.02 385.35 11.475-0.651 0.53842 6.049-1.9861 0.119-1.5885 0.07-4.163 0.291-4.4126 0.18 0.0731-3.298 0.0642-2.756" style="fill:#d0d0d0"/>
  <path id="Marion__AL" class="c01093" d="m670.88 391.41 4.4126-0.18 4.163-0.291 1.5885-0.07 0.59548 7.016 0.18364 2.002-5.9851 0.41-0.19968-2.355-0.66681 0.0636-0.057-0.69861-4.1719 0.209 0.0178-0.658 0.11945-5.452" style="fill:#d0d0d0"/>
  <path id="Winston__AL" class="c01133" d="m683.04 390.75 7.907-0.603-0.11232 7.112-9.1854 0.626-0.59548-7.016 1.9861-0.119" style="fill:#d0d0d0"/>
  <path id="Cullman__AL" class="c01043" d="m690.91 389.81 9.9466-0.747 2.5317 0.803-0.5937 0.04-0.55804 0.187-0.0784 0.06-1.0608 2.659-0.10341 0.178-2.5245 3.231-1.7026 1.501-1.3996 1.385-0.70602 0.931-3.1742-0.52415-0.65899-2.2488 0.11232-7.112-0.0303-0.337" style="fill:#d0d0d0"/>
  <path id="Blount__AL" class="c01009" d="m703.39 389.87 3.1806 3.4-0.29774 0.65-0.58478 3.135 0.84329-0.09-0.67749 1.77-0.4885 0.633-0.5313 0.572h-0.15154l-0.16937-0.1-2.4265 0.779 0.0802 0.845-1.4388-0.139-2.1608-1.26-2.3712 0.167-1.2516 0.772-0.28169-0.971 0.70602-0.931 1.3996-1.385 1.7026-1.501 2.5245-3.231 0.10341-0.178 1.0608-2.659 0.0784-0.06 0.55804-0.187 0.5937-0.04" style="fill:#d0d0d0"/>
  <path id="St._Clair__AL" class="c01115" d="m706.53 396.96-0.016-0.08 0.11945-0.249 0.42611-0.699 0.25851-0.193 1.4869-0.144 0.18363 0.103 0.14263 0.25 0.41898 0.973 0.4992 0.475 0.24069 0.151 0.39401-0.159 0.99484 1.316 0.23534 0.216 0.0642 0.146 0.025 1.471-1.4495 1.309-0.0713 0.235 0.0642 0.528-0.31378 0.176-0.88431 2.027 9e-3 0.12 0.19255 0.426 0.0874 0.112-0.79338 1.712-2.0342 2.498-2.981-3.293-0.52238-0.138-0.18542-0.167-0.11945-1.336 0.12836-0.344 0.16046-0.02 0.12124-0.513-0.14442-1.501-0.43502-0.972-0.66679 0.06-0.0802-0.845 2.4265-0.779 0.16937 0.1h0.15154l0.5313-0.572 0.4885-0.633 0.67749-1.77" style="fill:#d0d0d0"/>
  <path id="Calhoun__AL" class="c01015" d="m717.53 395.15 4.0008 0.185-3e-3 1.6982-1.844 0.0298 0.24069 2.362 0.30487 2.871-0.27278 0.522-1.5012 1.815-0.98236 0.103-0.0463-0.674-3.8011 0.378-0.54734-0.451-0.17829-0.861-0.54378-0.601-1.8096 0.09-0.0642-0.528 0.0713-0.235 1.4495-1.309-0.025-1.471-0.0642-0.146-0.23534-0.216 0.30666-0.03 0.49742-0.28 0.46711-0.363 1.0448-1.077 0.56161-0.906 0.32091-0.201 1.1339-0.113 1.5582 0.168-0.0392-0.763" style="fill:#d0d0d0"/>
  <path id="Etowah__AL" class="c01055" d="m710.05 390.54 4.9332-0.508 0.26565 2.049 0.83616 0.07 1.4299 2.513 0.016 0.482 0.0392 0.763-1.5582-0.168-1.1339 0.113-0.32091 0.201-0.56161 0.906-1.0448 1.077-0.46711 0.363-0.49742 0.28-0.30666 0.03-0.99484-1.315-0.39401 0.158-0.24069-0.151-0.4992-0.475-0.41898-0.973-0.14263-0.25-0.18363-0.103-1.4869 0.144-0.25851 0.193-0.42611 0.699-0.11945 0.249 0.016 0.08-0.84329 0.09 0.58478-3.134 0.29774-0.651 3.4802-2.723" style="fill:#d0d0d0"/>
  <path id="Marshall__AL" class="c01095" d="m704.96 381.79 3.3429-0.33 0.23177 1.327 1.7615 1.324-0.24069 6.431-3.4802 2.723-3.1806-3.4-2.5317-0.803 0.0392-5.61 0.41184 0.957 0.65075 0.401 0.62578 0.107 0.65075-0.217 1.8631-0.951 0.26565-0.682 0.14619-0.876-0.10697-0.297-0.24782-0.12-0.20146 0.02" style="fill:#d0d0d0"/>
  <path id="Morgan__AL" class="c01103" d="m696.39 383.78 4.5071-0.331-0.0392 5.61-9.9466 0.747-0.71671-8.575 6.1955 2.549" style="fill:#d0d0d0"/>
  <path id="Lawrence__AL" class="c01079" d="m683.94 379.16 3.1896 0.665 3.063 1.407 0.71671 8.575 0.0303 0.337-7.907 0.603-0.53842-6.049 1.3327-2.0576 0.11318-3.4804" style="fill:#d0d0d0"/>
  <path id="Colbert__AL" class="c01033" d="m671.21 378.13 0.71494-0.336 0.32269-0.08 1.3086 0.439 0.41719 0.308 0.28348 0.383 0.12837 0.241 0.15154 0.515 0.22464 0.339 1.4869 1.166 0.15155 0.09 0.56339 0.169 0.85221-0.153 0.49029-0.275 0.0963-0.103 0.32092-0.555 2.1769-1.292 0.73989-0.314 0.40293-0.09 0.14441 0.02 1.7508 0.57-0.11318 3.4804-1.3327 2.0576-11.475 0.651 0.19255-7.226" style="fill:#d0d0d0"/>
  <path id="Lauderdale__AL" class="c01077" d="m687.32 374.22 0.23177-0.02-0.41897 5.623-3.1896-0.665-1.7508-0.57-0.14441-0.02-0.40293 0.09-0.73989 0.314-2.1769 1.292-0.32092 0.555-0.0963 0.103-0.49029 0.275-0.85221 0.153-0.56339-0.169-0.15155-0.09-1.4869-1.166-0.22464-0.339-0.15154-0.515-0.12837-0.241-0.28348-0.383-0.41719-0.308-1.3086-0.439-0.32269 0.08-0.71494 0.335-2.1074-2.225 3.9954-0.577 7.0709-0.548 7.1457-0.552" style="fill:#d0d0d0"/>
  <path id="Limestone__AL" class="c01083" d="m694.54 373.72 0.97701-0.09 0.87004 10.164-6.1955-2.549-3.063-1.407 0.41897-5.623 6.9924-0.49" style="fill:#d0d0d0"/>
  <path id="Madison__AL" class="c01089" d="m704.33 372.76 0.39579 1.034-0.49207 2.589-0.17472 2.355 0.21751 2.364 0.68106 0.69 0.20146-0.02 0.24782 0.12 0.10697 0.297-0.14619 0.876-0.26565 0.683-1.8631 0.95-0.65075 0.217-0.62578-0.107-0.65075-0.401-0.41184-0.957-4.5071 0.331-0.87004-10.164 8.6665-0.854h0.14085" style="fill:#d0d0d0"/>
  <path id="Jackson__AL" class="c01071" d="m717.49 371.51 0.72384 2.811-1.1713 2.58-2.02 3.256-3.2145 3.407-0.52951 0.353-0.42611 0.169-0.5616 0.02-1.7615-1.324-0.23177-1.327-3.3429 0.33-0.68106-0.69-0.21751-2.364 0.17472-2.355 0.49207-2.589-0.39579-1.034 8.3349-0.811 4.828-0.435" style="fill:#d0d0d0"/>
  <path id="DeKalb__AL" class="c01049" d="m718.21 374.32 1.5119 5.344 0.22465 0.79 0.40827 1.454-0.11232-0.04-0.0695 0.05-0.89322 1.036-0.11232 1.334-0.58656 1.262-2.4443 2.983-0.65074 0.08-0.45464 0.432-0.13015 0.251 0.0784 0.738-4.9332 0.508 0.24069-6.431 0.5616-0.02 0.42611-0.169 0.52951-0.353 3.2145-3.407 2.02-3.256 1.1713-2.58" style="fill:#d0d0d0"/>
  <path id="Cherokee__AL" class="c01019" d="m720.36 381.91 1.5761 5.351 1.2854 4.644 0.73098 2.628-2.4194 0.795-4.0008-0.185-0.016-0.482-1.4299-2.513-0.83616-0.07-0.26565-2.049-0.0784-0.738 0.13015-0.251 0.45464-0.432 0.65074-0.08 2.4443-2.983 0.58656-1.262 0.11232-1.334 0.89322-1.036 0.0695-0.05 0.11232 0.04" style="fill:#d0d0d0"/>
  <path id="Cleburne__AL" class="c01029" d="m723.95 394.54 0.39401 1.405 1.5582 5.611 1.0768 3.831-6.4611 0.417-2.3213 0.195 0.0339 0.344-0.29061 0.363-1.995 0.209-0.0143-0.168 0.62757-0.579 0.91461-1.432 0.98236-0.103 1.5012-1.815 0.27278-0.522-0.30487-2.871-0.24069-2.362 1.844-0.0298 3e-3 -1.6982 2.4194-0.795" style="fill:#d0d0d0"/>
  <path id="Randolph__AL" class="c01111" d="m720.52 405.8 6.4611-0.417 0.34588 1.239 1.8631 6.725 0.13728 0.482-6.8765 0.788-1.1517 0.137-0.77912-8.954" style="fill:#d0d0d0"/>
  <path id="Chambers__AL" class="c01017" d="m729.33 413.83 1.544 5.343 1.2284 2.735-2.1287 0.28-0.6668 0.408-5.8977 0.709-0.95562-8.687 6.8765-0.788" style="fill:#d0d0d0"/>
  <path id="Lee__AL" class="c01081" d="m723.41 423.3 5.8977-0.709 0.6668-0.408 2.1287-0.28 1.3889 3.059 1.8435 2.05-1.1647 0.28176 0.27198 1.0001-3.5608 0.62312-1.7219 0.35408 0.10664 0.74592-1.9915 0.249-0.31378-1.993-0.97345 0.112-4.1701-1.51-0.041-0.323-0.32629-2.9974 1.9594-0.25458" style="fill:#d0d0d0"/>
  <path id="Russell__AL" class="c01113" d="m735.87 430.19-0.21573 0.82 0.041 0.194 0.12123 0.136 1.2765 0.344 0.47424 0.396 0.19255 0.383-0.16046 0.724-0.0464 0.07-2.0895 4.127-2.4942 0.323-0.13372-0.06-0.79694-0.838-0.0731-0.209-0.61865-0.722-2.94 0.371-0.6757-1.972-0.45642-4.008 1.9915-0.249-0.10664-0.74592 1.7219-0.35408 3.5608-0.62312-0.27198-1.0001 1.1647-0.28176 0.53486 3.174" style="fill:#d0d0d0"/>
  <path id="Barbour__AL" class="c01005" d="m735.46 437.38 0.0535 1.719-0.90748 4.937 0.33874 0.449-0.18542-0.162-0.32983-0.104h-0.11053l-0.0981 0.06-0.51525 0.651-0.29774 0.892-0.10341 0.176-3.8884 0.337 0.21751 2.002-6.4379 0.74 1.1018-6.197-0.016-0.182 0.1141-0.556 0.8843-1.735 1.5244-0.572 1.5832-0.53-0.12837-0.843-0.16759-2.009 0.312-0.2 2.94-0.371 0.61865 0.722 0.0731 0.209 0.79694 0.838 0.13372 0.06 2.4942-0.323" style="fill:#d0d0d0"/>
  <path id="Chicot__AR" class="c05017" d="m614.23 412.76 0.26386 0.73 0.025 0.01 0.97345 0.663 0.79516 0.537 0.15155 0.536-0.23178 0.459-0.98949 0.288 0.96453 2.758 0.65075 1.181 0.4992 0.529 0.0553 1.747v0.02l-0.60261 2.501-0.016 0.02-0.56161 0.634-0.15511 0.177-1.8952 0.07-3.2787 0.134-0.47424 0.03-0.36014-8.83-0.12123-4.033 1.9772-0.1 0.10519 0.692 0.5206 0.319 1.4067-0.04 0.29774-1.036" style="fill:#d0d0d0"/>
  <path id="Ashley__AR" class="c05003" d="m599.86 417.19 10.182-0.239 0.36014 8.83-11.676 0.474-1.462-3.521 0.44929-1.155 0.70958-0.925 0.84151-0.681 0.37975-0.106 0.55269-0.467 0.25674-1.775-0.5937-0.435" style="fill:#d0d0d0"/>
  <path id="Pope__AR" class="c05115" d="m582.41 364.07 0.0481 3.101-0.65253 0.934 0.041 2 0.073 6.294-0.66896 0.0594-2.3694 0.255 0.31403 1.1963-0.71382-0.0759-2.831-3.4634-1.6555-0.6564-0.39045-0.218-0.0428-3.302h0.33875l1.0038-1.059 0.95561-1.955-0.0303-3.037 3.9526-0.02 2.628-0.04" style="fill:#d0d0d0"/>
  <path id="Newton__AR" class="c05101" d="m579.61 355.06 0.16938 9.05-3.9526 0.02-6.5984-0.617-0.16046-1.392 9e-3 -1.341 0.40828-1.012 0.57051-1.004-0.312-3.641h3.309l6.5574-0.06" style="fill:#d0d0d0"/>
  <path id="Madison__AR" class="c05087" d="m563.45 351.08 2.9096 0.01 0.49742 0.569 0.2496 0.908v0.868l0.16224 0.33 0.50633 0.706 0.64897 0.659h1.3193l0.312 3.641-0.57051 1.004-0.40828 1.012-9e-3 1.341 0.16046 1.392-3.2787-0.04-3.9687 0.298h-0.96454v-1.679l0.17651-5.98 0.96275-3.352 0.0754-1.6502 1.2189-0.0358" style="fill:#d0d0d0"/>
  <path id="Franklin__AR" class="c05047" d="m561.98 363.78 3.9687-0.298-0.0392 9.113-1.5964-0.6213 0.0202 1.7619-2.2219 0.0639 0.11038 1.9229-1.3764-0.0392-0.78718 0.77669-0.72536-7e-3 -0.2463-5.3295 0.28882-0.153 0.34588-1.108 0.25852-1.317-0.94339-0.58029-0.15514-2.3144 0.71674-0.0323 2.3822-1.165 0.33696-0.335 7e-3 -0.339h-0.34409" style="fill:#d0d0d0"/>
  <path id="Johnson__AR" class="c05071" d="m565.95 363.48 3.2787 0.04 6.5984 0.617 0.0303 3.037-0.95561 1.955-1.0038 1.059h-0.33875l0.0428 3.302-2.0357 0.0217-0.23332-2.3428-1.0739 0.40309-0.78981 0.312-1.4156 0.451-2.143 0.248 0.0392-9.113" style="fill:#d0d0d0"/>
  <path id="Logan__AR" class="c05083" d="m565.91 372.59 2.143-0.248 1.4156-0.451 0.78981-0.312 1.0739-0.40309 0.23332 2.3428 2.0357-0.0217 0.39045 0.218 0.16988 2.0131-3.3648 0.23559-1.5599 1.4522-3.1482 0.52907 0.0227 2.247 0.0945 0.619-3.9455 0.02-2.9738-0.02-1.2676-0.651v-1.022l7e-3 -1.012 2.0182 0.02 0.0143-1.694 0.78718-0.77669 1.3764 0.0392-0.11038-1.9229 2.2219-0.0639-0.0202-1.762 1.5964 0.6213" style="fill:#d0d0d0"/>
  <path id="Yell__AR" class="c05149" d="m573.99 373.72 1.6555 0.6564 2.831 3.4634 0.71382 0.0759-0.31403-1.1963 2.3694-0.255-2.6577 2.6856-1.5119 1.4-1.3889 1.341-0.63648 0.709-0.95562 1.309 0.0731 2.403-1.9754 0.747-5.9387 0.104-0.0499-6.347-0.0945-0.619-0.0227-2.247 3.1482-0.52907 1.5599-1.4522 3.3648-0.23559-0.16988-2.0131" style="fill:#d0d0d0"/>
  <path id="Perry__AR" class="c05105" d="m578.59 379.15 6.019-0.08 1.5654-0.151 0.29774-0.06 0.24069-0.09 0.93422-0.772 0.0874 0.09 0.17651 0.472 0.025 0.216-0.0713 0.564-0.082 0.201-0.14441 0.207-0.2086 0.219-0.29595 0.25-0.13015 0.16-0.082 0.273 0.0713 0.28 0.21751 0.362 0.19611 0.169 0.22286 0.129 0.33697 0.103-0.55983 0.387-1.3764 0.346-1.9433 0.378 0.0143 1.333h0.29061l-0.18542 0.412-1.503-0.396h-2.6422l-1.9362 0.08 0.0392 1.993-3.9936 0.09-0.0731-2.403 0.95562-1.309 0.63648-0.71 1.3889-1.34 1.5119-1.4" style="fill:#d0d0d0"/>
  <path id="Conway__AR" class="c05029" d="m581.84 370.11 6.9122-0.07 0.0392 2.016-1.1482 5.946-0.93422 0.772-0.24069 0.09-0.29774 0.06-1.5654 0.151-6.019 0.08 2.6577-2.6856 0.66896-0.0595-0.073-6.294" style="fill:#d0d0d0"/>
  <path id="Faulkner__AR" class="c05045" d="m595.68 371.92 0.13015 6.853 0.0214 1.252-1.9932 0.03-0.58478 2.018-3.81 0.04-1.478-0.419-0.33697-0.103-0.22286-0.129-0.19611-0.169-0.21751-0.362-0.0713-0.28 0.082-0.273 0.13015-0.16 0.29595-0.25 0.2086-0.219 0.14441-0.207 0.082-0.201 0.0713-0.564-0.025-0.215-0.17651-0.473-0.0874-0.09 1.1482-5.946 4.2593-0.06 2.6262-0.08" style="fill:#d0d0d0"/>
  <path id="Van_Buren__AR" class="c05141" d="m589.63 362.28 0.0553 1.7026 3.2769-0.0546 0.0909 8.069-4.2593 0.06-0.0392-2.016-6.9122 0.07-0.041-2 0.65253-0.934-0.0481-3.101 3.3108-0.02-0.0321-1.678 3.9455-0.1" style="fill:#d0d0d0"/>
  <path id="Searcy__AR" class="c05129" d="m579.61 355.06h0.99663l0.97983-8e-3 0.0328 0.99434 7.8678-0.111 0.0232 2.019 0.12124 4.328-3.9455 0.1 0.0321 1.678-3.3108 0.02-2.628 0.04-0.16938-9.05" style="fill:#d0d0d0"/>
  <path id="Stone__AR" class="c05137" d="m593.41 354.16 2.2001 1.679 0.10697 0.08 0.33518 0.409 9e-3 0.105-0.8022 2.0715 2.7454 0.1586 1.1733 1.0569 0.87717 0.314 0.39402 3.751-7.4827 0.145-3.2769 0.0546-0.0553-1.7026-0.12124-4.328 1.9861-0.03-0.0109-2.011 1.9542-0.046-0.0321-1.704" style="fill:#d0d0d0"/>
  <path id="Cleburne__AR" class="c05023" d="m600.45 363.78 0.81599-0.0239 0.15567 3.9379 0.0499 1.816-0.94849 2.299-4.8387 0.105-2.6262 0.08-0.0909-8.069 7.4827-0.145" style="fill:#d0d0d0"/>
  <path id="White__AR" class="c05145" d="m601.42 367.7 3.9473-0.09 0.0355 1.9854 4.4217-0.0824-1.5101 1.864-0.0481 1.382 0.041 0.145 0.50633 0.698-0.40293 3.57-0.39401 0.531-2.2092 0.035 0.0241 1.4584-1.2367-0.0633-0.37822-0.8962-1.3658 0.32039-1.0777 0.8007-2.6511-0.241-0.87539-0.307-2.4336-0.03-0.13015-6.853 4.8387-0.105 0.94849-2.299-0.0499-1.816" style="fill:#d0d0d0"/>
  <path id="Independence__AR" class="c05063" d="m609.12 359.07 2.9328-0.13-0.1034 0.403-0.18542 0.547-0.51347 1.196-1.6045 1.2548 0.0552 2.2092-0.3958 2.958-2.5067 0.08h-1.437l-3.9473 0.09-0.15567-3.9379-0.81599 0.0239-0.39402-3.751 2.4924-1.833 4.5713-0.1 0.025 1.029 1.9826-0.06" style="fill:#d0d0d0"/>
  <path id="Jackson__AR" class="c05067" d="m612.06 358.94 3.079-0.05 0.13015 4.09 0.271 6.14 0.10519 2.051-3.9437 0.126-0.13015-2.041-1.8096 0.112 0.0642 0.129-4.4217 0.0824-0.0355-1.9854h1.437l2.5067-0.08 0.3958-2.958-0.0552-2.2092 1.6045-1.2548 0.51347-1.196 0.18542-0.547 0.1034-0.403" style="fill:#d0d0d0"/>
  <path id="Woodruff__AR" class="c05147" d="m609.82 369.5-0.0642-0.129 1.8096-0.112 0.13015 2.041 3.9437-0.126 0.19255 4.762 0.1647 3.4186-1.9886 0.0564-1.6456 0.05-0.83795 0.481-0.15154 0.708 0.0232 0.979-1.3835 0.06-0.0624-3.222-1.79 0.08-0.0909-0.255-0.0571-0.603 0.39401-0.531 0.40293-3.57-0.50633-0.698-0.041-0.145 0.0481-1.382 1.5101-1.864" style="fill:#d0d0d0"/>
  <path id="St._Francis__AR" class="c05123" d="m625.9 375.48 1.913-0.201 0.16046 3.368 0.0161 2.273-10.034 0.499-1.9077-0.02-0.98592 0.06 0.0392 1.027-0.88901-0.96557-0.20389-2.1074 1.9886-0.0564-0.1647-3.4186 10.068-0.457" style="fill:#d0d0d0"/>
  <path id="Crittenden__AR" class="c05035" d="m631.77 368.33 0.0826 0.95529 0.33065-0.0871-3e-3 -0.5322 0.58501-0.24604 1.046 0.89856-0.46921 0.48046 0.1004 0.41812-0.14434 0.75462-0.97029 0.58638 0.26865 0.41812 0.86517-0.0254 0.53298 0.566 0.15059 0.62718-0.54284 0.86711 0.70142 0.32742-0.0595 0.82488-0.59016 0.46514-1.0568-0.37181-0.35021 0.41971-0.58569 1.8158-1.7422 0.16275-0.22464 0.717 0.0321 0.321 0.47246 3.102-2.0966 0.768-0.11232-1.645-0.0161-2.273-0.16046-3.368-1.913 0.201-0.3851-6.878 4.0115-0.16 2.2434-0.113" style="fill:#d0d0d0"/>
  <path id="Cross__AR" class="c05037" d="m625.52 368.61 0.3851 6.878-10.068 0.457-0.19255-4.762-0.10519-2.051 1.6955-0.07 4.3074-0.408 1.9612-0.09 2.0164 0.05" style="fill:#d0d0d0"/>
  <path id="Poinsett__AR" class="c05111" d="m615.26 362.99 3.4784-0.114 7.3846-0.383 3.038-0.09 0.36192 6.044-4.0115 0.16-2.0164-0.05-1.9612 0.09-4.3074 0.408-1.6955 0.07-0.271-6.14" style="fill:#d0d0d0"/>
  <path id="Mississippi__AR" class="c05093" d="m639.6 354.72 0.0852 0.56319 0.89211 0.45974 0.4572 0.43906-0.22462 1.039-1.377-0.24826-0.33517 0.06-0.21496 0.66415 1.2014 0.49515-0.11767 0.9926-1.2435 0.18845-0.20906 0.56085-0.4987 0.58153-1.1194 0.33327-0.63758-0.0999-0.69964 0.62414 0.58304 1.1414 0.93475-0.45166 0.54167 0.7069-0.28588 0.72758-1.4651 0.91378 0.56235 0.76896 0.25979 1.0446-1.314-0.25898-0.31251-0.56102-0.70995 0.059-0.12132 1.0784 0.57815 0.64923-0.26106 1.8925-0.289 0.032-0.77362-0.57834-0.35978-0.9882-0.51378 0.50294-0.8417 0.28677-2.2434 0.113-0.36192-6.044-0.45107-6.847 6.0742-0.433 4.8115-0.39675" style="fill:#d0d0d0"/>
  <path id="Craighead__AR" class="c05031" d="m628.71 355.55 0.45107 6.847-3.038 0.09-7.3846 0.383-3.4784 0.114-0.13015-4.09 3.3264-0.0416-0.10474-2.0474 8.5827-0.41 0.30844-0.747 1.4673-0.1" style="fill:#d0d0d0"/>
  <path id="Izard__AR" class="c05065" d="m602.57 350.97-0.0232 7.224-2.4924 1.833-0.87717-0.314-1.1733-1.0569-2.7454-0.1586 0.8022-2.0715-9e-3 -0.105-0.33518-0.409-0.10697-0.08-2.2001-1.679h-0.36192l-0.016-0.963 0.98949-0.412-0.025-1.624 8.5738-0.184" style="fill:#d0d0d0"/>
  <path id="Lawrence__AR" class="c05075" d="m610.51 350.49 2.2357 1.97 1.2534 1.093 0.57765-0.804 4.3324-0.185 1.1018-0.05 7e-3 0.09-0.34766 0.868-0.50634 0.488-0.26386 0.195-0.72206 2.016 0.17472 0.635 0.10474 2.0474-3.3264 0.0416-3.079 0.05-2.9328 0.13-0.0713-3.085-0.15155-3.496-0.025-1.294 0.3227-0.346 1.3158-0.362" style="fill:#d0d0d0"/>
  <path id="Sharp__AR" class="c05135" d="m607.53 345.09 7e-3 0.224 1.1268 1.141 0.66679 0.321 0.73811 1.029 0.3851 1.198 0.0642 1.485-1.3158 0.362-0.3227 0.346 0.025 1.294 0.15155 3.496 0.0713 3.085-1.9826 0.06-0.025-1.029-4.5713 0.1 0.0232-7.224 2.316-0.03-0.0815-2.6381 2.0088-0.0999-0.0713-3.095 0.78624-0.02" style="fill:#d0d0d0"/>
  <path id="Greene__AR" class="c05055" d="m618.82 349.85 1.6652-0.123 5.9922-0.144 1.3176 0.602 0.041 0.685 2.2482-0.162-2.8401 4.942-0.30844 0.747-8.5827 0.41-0.17472-0.635 0.72206-2.016 0.26386-0.195 0.50634-0.488 0.34766-0.868-7e-3 -0.09-1.1018 0.05-0.0891-2.714" style="fill:#d0d0d0"/>
  <path id="Clay__AR" class="c05021" d="m622.75 344.26 6.5164-0.371 0.49029-0.03 0.72385-0.02 1.6385 2.314 0.17828 0.239 0.11945 1.826-0.19433 0.529-0.12836 0.202-2.0093 1.767-2.2482 0.162-0.041-0.685-1.3176-0.602-5.9922 0.144-1.6652 0.123 1.6599-0.65071-0.31883-3.6258-1.2306-1.1094 3.8189-0.207" style="fill:#d0d0d0"/>
  <path id="Randolph__AR" class="c05121" d="m618.93 344.47 1.2306 1.1094 0.31883 3.6258-1.6599 0.65071 0.0891 2.714-4.3324 0.185-0.57765 0.804-1.2534-1.093-2.2357-1.97-0.0642-1.485-0.3851-1.198-0.73811-1.029-0.66679-0.321-1.1268-1.141-7e-3 -0.224 5.1436-0.273 6.265-0.355" style="fill:#d0d0d0"/>
  <path id="Fulton__AR" class="c05049" d="m606.74 345.12 0.0713 3.095-2.0088 0.0999 0.0815 2.6381-2.316 0.03-8.5738 0.184-0.0981-5.493 0.54734-0.03 8.219-0.369 4.0774-0.146" style="fill:#d0d0d0"/>
  <path id="Baxter__AR" class="c05005" d="m586.95 345.95 6.9496-0.287 0.0981 5.493 0.025 1.624-0.98949 0.412 0.016 0.963h0.36192l0.0321 1.704-1.9542 0.046 0.0109 2.011-1.9861 0.03-0.0232-2.019-0.0107-1.349-0.46355-1.079-0.98236-2.013-0.85043-1.005-0.30487-0.22 0.0874-1.822-0.0161-2.492" style="fill:#d0d0d0"/>
  <path id="Marion__AR" class="c05089" d="m582.49 346.11 4.459-0.153 0.0161 2.492-0.0874 1.822 0.30487 0.22 0.85043 1.005 0.98236 2.013 0.46355 1.079 0.0107 1.349-7.8678 0.111-0.0328-0.99434-0.97983 8e-3 0.37618-8.904 1.5048-0.05" style="fill:#d0d0d0"/>
  <path id="Boone__AR" class="c05009" d="m580.98 346.15-0.37618 8.904h-0.99663l-6.5574 0.06-0.16759-8.727 8.0978-0.241" style="fill:#d0d0d0"/>
  <path id="Carroll__AR" class="c05015" d="m572.88 346.39 0.16759 8.727h-4.6283l-0.64897-0.659-0.50633-0.706-0.16224-0.33v-0.868l-0.2496-0.908-0.49742-0.569-2.9096-0.01-1.0372-1.2074 1e-3 -3.2196 5.1757-0.129 4.9403-0.121h0.35479" style="fill:#d0d0d0"/>
  <path id="Benton__AR" class="c05007" d="m558.55 346.73 3.8653-0.08-1e-3 3.2196 1.0372 1.2074-1.2189 0.0358-0.0754 1.6502-0.33485-0.82135-1.8964 0.14437-0.0141 0.95571-5.9487 0.36327-0.82012 1.678-0.19255 1.006-2.9738-0.02-0.21751-1.377-1.1339-7.803 9.9252-0.159" style="fill:#d0d0d0"/>
  <path id="Washington__AR" class="c05143" d="m549.97 356.07 2.9738 0.02 0.19255-1.006 0.82012-1.678 5.9487-0.36327 0.0141-0.95571 1.8964-0.14437 0.33485 0.82135-0.96275 3.352-0.17651 5.98v1.679l-2.997-0.03-2.291 0.284-4.5392-0.04-1.2141-7.921" style="fill:#d0d0d0"/>
  <path id="Crawford__AR" class="c05033" d="m561.02 363.78h1.3086l-7e-3 0.339-0.33696 0.335-2.3822 1.165-0.71674 0.0323 0.15514 2.3144 0.94339 0.58029-0.25852 1.317-0.34588 1.108-0.28882 0.153-1.1018-0.111-0.15868 0.02-0.1141 0.06-0.16046 0.135-0.0784 0.177 0.0874 0.192 0.27278 0.243 0.0802 0.144 0.0713 0.248-0.0143 0.169-0.0571 0.147-0.13728 0.119-1.1731 0.529-0.30487 0.1-1.2854 0.1-0.47424-0.154-0.43324-0.538-0.0642-0.314 0.0731-0.305v-0.09l-0.10518-0.234-0.61153-0.474-0.30487-0.135-0.2496-0.05-0.0481 0.02-0.33874 1.205-0.84152-5.554-0.4261-2.788 4.5392 0.04 2.291-0.284 2.997 0.03" style="fill:#d0d0d0"/>
  <path id="Sebastian__AR" class="c05131" d="m552.46 372.33 0.33874-1.205 0.0481-0.02 0.2496 0.05 0.30487 0.135 0.61153 0.474 0.10518 0.234v0.09l-0.0731 0.305 0.0642 0.314 0.43324 0.538 0.47424 0.154 1.2854-0.1 0.30487-0.1 1.1731-0.529 0.13728-0.119 0.0571-0.147 0.0143-0.169-0.0713-0.248-0.0802-0.144-0.27278-0.243-0.0874-0.192 0.0784-0.177 0.16046-0.135 0.1141-0.06 0.15868-0.02 1.1018 0.111 0.2463 5.3295 0.72536 7e-3 -0.0143 1.694-2.0182-0.02-7e-3 1.012h-0.33875l-1.1892 0.501-0.51525 0.328v0.17h0.42076v2.057l-0.63649 0.264-3.0933 0.668-0.32983-0.06 0.11232-10.34 7e-3 -0.403" style="fill:#d0d0d0"/>
  <path id="Scott__AR" class="c05127" d="m558.02 379.14v1.022l1.2676 0.651 2.9738 0.02 3.9455-0.02 0.0499 6.347h-0.65253l-1.5725 0.841-0.88609 1.07-0.97879 0.04v-0.337l-1.6634-0.25h-5.625l-0.071-0.74335-2.5177 0.0614 0.0481-4.748 0.32983 0.06 3.0933-0.669 0.63649-0.263v-2.058h-0.42076v-0.169l0.51525-0.328 1.1892-0.501h0.33875" style="fill:#d0d0d0"/>
  <path id="Montgomery__AR" class="c05097" d="m572.19 387.05-0.025 8.019 0.016 1.327h-9.9573l-0.0624-7.297 0.97879-0.04 0.88609-1.069 1.5725-0.842h0.65253l5.9387-0.103" style="fill:#d0d0d0"/>
  <path id="Garland__AR" class="c05051" d="m578.16 386.22 1.9843-0.07 0.0571 2.025-6e-3 1.0621 1.2254 0.0359 0.32923 0.97037 1.5606 0.0126 0.33518 0.65 0.0107 1.35-2.291 0.02-0.57765 1.341 0.0392 1.381-8.6612 0.08 0.025-8.019 1.9754-0.747 3.9936-0.09" style="fill:#d0d0d0"/>
  <path id="Saline__AR" class="c05125" d="m584.39 384.13 1.6481-0.17406 0.0225 1.3891 1.9772 1.904 2.7563 1.906 3.0238 0.928 0.15867 2.028-2.9738 0.06-3e-3 1.0586-2.8086-6e-3 -1.1731 0.908-0.93957 0.103-0.0569-1.9766-2.3624-7e-3 -0.0107-1.35-0.33518-0.65-1.5606-0.0126-0.32923-0.97037-1.2254-0.0359 6e-3 -1.0621-0.0571-2.025-1.9843 0.07-0.0392-1.993 1.9362-0.08h2.6422l1.503 0.395 0.18542-0.412" style="fill:#d0d0d0"/>
  <path id="Pulaski__AR" class="c05119" d="m595.83 380.02 0.94314-0.02 0.14441 6.46-0.13429 2.5343 1.138-0.0103 0.11946 3.054-3.3482 0.05-0.71672 0.02-0.15867-2.028-3.0238-0.928-2.7563-1.906-1.9772-1.904-0.0225-1.3891-1.6481 0.17406h-0.29061l-0.0143-1.333 1.9433-0.378 1.3764-0.346 0.55983-0.387 1.478 0.419 3.81-0.04 0.58478-2.018 1.9932-0.03" style="fill:#d0d0d0"/>
  <path id="Lonoke__AR" class="c05085" d="m595.81 378.77 2.4336 0.03 0.87539 0.307 2.6511 0.241 0.0891 2.515 2.0664-0.05-0.14527 5.4848 1.4878 1.2582 0.16759 1.478-9e-3 0.353-0.74702 1.535h-0.51347l-6.1242 0.114-0.11946-3.054-1.138 0.0103 0.13429-2.5343-0.14441-6.46-0.94314 0.02-0.0214-1.252" style="fill:#d0d0d0"/>
  <path id="Prairie__AR" class="c05117" d="m601.77 379.35 1.0777-0.8007 1.3658-0.32039 0.37822 0.8962 1.2367 0.0633-0.0241-1.4584 2.2092-0.035 0.0571 0.603 0.0909 0.255 1.79-0.08 0.0624 3.222-0.0309 5.527-1.4924 2e-3 0.0823 1.3938 1.29 0.19255 0.37738 0.96104-4.081 0.1 0.0695 2.009-0.55269 0.05h-0.99663l0.74702-1.535 9e-3 -0.353-0.16759-1.478-1.4878-1.2582 0.14527-5.4848-2.0664 0.05-0.0891-2.515" style="fill:#d0d0d0"/>
  <path id="Monroe__AR" class="c05095" d="m610.01 381.69 1.3835-0.06-0.0232-0.979 0.15154-0.708 0.83795-0.481 1.6456-0.05 0.20389 2.1074 0.88901 0.96557 0.10519 3.063 1.0038-0.03 0.0571 2.042 0.15154 4.041 1.0269-0.03 0.016 0.362 0.10697 2.724-1.0144 0.04-0.1355 0.01-0.59548-0.226-0.29596-0.207-1.7116-1.851-1.3354-1.913-0.61687-0.786-1.6242 0.04-0.37738-0.96104-1.29-0.19255-0.0823-1.3938 1.4924-2e-3 0.0309-5.527" style="fill:#d0d0d0"/>
  <path id="Lee__AR" class="c05077" d="m615.1 382.49-0.0392-1.027 0.98592-0.06 1.9077 0.02 10.034-0.499 0.11232 1.645-2.8918 4.606-8.9429 0.386-0.0571-2.041-1.0038 0.03-0.10519-3.063" style="fill:#d0d0d0"/>
  <path id="Phillips__AR" class="c05107" d="m625.21 387.17 0.25673 2.676 0.20147 2.064-0.1355 0.442-0.0178 0.04-0.041 0.03-0.65075 0.57-0.81834 0.392-0.98949 0.203-0.98593 0.193-1.8007 3.231-0.85399 1.759-0.27278 0.569 0.0642 0.225 9e-3 0.03-3.5265 0.176 0.9057-5.079 1.0144-0.04-0.10697-2.724-0.016-0.362-1.0269 0.03-0.15154-4.041 8.9429-0.387" style="fill:#d0d0d0"/>
  <path id="Jefferson__AR" class="c05069" d="m598.04 392.04 6.1242-0.114 0.1355 5.753 2.2518 0.02 0.98949 0.05 0.19077 0.137 1.7686 2.057 0.24961 0.878-0.1462 0.135-0.10341 0.05-1.0679 0.209-1.4245-0.466-2.9328-1.424-0.43324 1.624-3.769 0.184 0.025 0.675-5.2969 0.257-0.0713-2.457 0.30665-1.44-0.14441-6.067 3.3482-0.05" style="fill:#d0d0d0"/>
  <path id="Grant__AR" class="c05053" d="m594.69 392.09 0.14441 6.067-0.30665 1.44 0.0713 2.457-1.9433 0.139-1.7668-1.455-1.3104-0.386h-3.473l-0.0303-6.116 0.93957-0.103 1.1731-0.908 2.8086 6e-3 3e-3 -1.0586 2.9738-0.06 0.71672-0.02" style="fill:#d0d0d0"/>
  <path id="Hot_Spring__AR" class="c05059" d="m583.66 392.25 2.3624 7e-3 0.0569 1.9766 0.0303 6.116h-5.8657l-0.76307-1.15-6.2828-1.446 0.0258-1.2994-1.0384-0.0417-0.016-1.326 8.6612-0.08-0.0392-1.381 0.57765-1.341 2.291-0.02" style="fill:#d0d0d0"/>
  <path id="Dallas__AR" class="c05039" d="m582.17 400.35h7.4114l1.3104 0.387 1.7668 1.455-2.5548 0.257-7e-3 1.856 0.34409 0.06 0.68284 0.617 0.44215 0.636 1.2854 2.266 0.0784 0.419h-4.7317l-5.9049 0.02-0.42789-1.928-0.85005-2.441 1.1549 0.36598v-3.992" style="fill:#d0d0d0"/>
  <path id="Cleveland__AR" class="c05025" d="m594.6 402.06 5.2969-0.257-0.15333 6.308 0.0891 2.018-6.7589 0.193-0.14619-2.007-0.0784-0.419-1.2854-2.266-0.44215-0.637-0.68284-0.617-0.34409-0.06 7e-3 -1.856 2.5548-0.257 1.9433-0.139" style="fill:#d0d0d0"/>
  <path id="Lincoln__AR" class="c05079" d="m609.5 401 0.5206 1.494 7e-3 0.368-0.79337 0.563-1.5761 0.05 9e-3 3.446 0.0321 1.031-7.9552 0.158 0.15333-6.308-0.025-0.675 3.769-0.184 0.43324-1.624 2.9328 1.424 1.4245 0.466 1.0679-0.209" style="fill:#d0d0d0"/>
  <path id="Arkansas__AR" class="c05001" d="m604.17 391.92h1.5101l0.55269-0.05-0.0695-2.009 4.081-0.1 1.6242-0.04 0.61687 0.787 1.3354 1.913 1.7116 1.85 0.29596 0.207 0.59548 0.226 0.1355-0.01-0.9057 5.079-0.93422 0.635-0.29596 0.281-0.15511 0.25-0.0214 0.522 0.0553 0.345 0.3958 0.395 0.87539 1.35-0.33874 0.451-2.3142-0.685-1.1321-0.691-1.7615-0.145-0.5206-1.494 0.10341-0.05 0.1462-0.135-0.24961-0.878-1.7686-2.057-0.19077-0.137-0.98949-0.05-2.2518-0.02-0.1355-5.754" style="fill:#d0d0d0"/>
  <path id="Desha__AR" class="c05041" d="m619.18 399.61 0.85221 0.682 0.20146 0.5-0.11232 0.772-3.7137 1.87-1.5261 6.573-0.10519 0.523 0.025 0.05 0.1141 0.203 0.56874 0.426 0.53842 0.435v0.02l-0.0499 0.247-0.33696 0.289-1.4049 0.565-0.29774 1.036-1.4067 0.04-0.5206-0.32-0.10519-0.691-1.9772 0.1-0.15164-5.0132-2.0662 0.0392-0.0321-1.031-9e-3 -3.446 1.5761-0.05 0.79337-0.563-7e-3 -0.368 1.7615 0.145 1.1321 0.691 2.3142 0.685 0.33874-0.451-0.87539-1.35-0.3958-0.395-0.0553-0.345 0.0214-0.522 0.15511-0.25 0.29596-0.281 0.93422-0.635 3.5265-0.176" style="fill:#d0d0d0"/>
  <path id="Drew__AR" class="c05043" d="m599.75 408.11 7.9552-0.158 2.0662-0.0392 0.15164 5.0132 0.12123 4.033-10.182 0.239-0.21038-0.296-0.312-0.924-0.0178-0.112 0.0588-1.632 0.0143-0.04 0.60261-0.03-0.15868-4.033-0.0891-2.018" style="fill:#d0d0d0"/>
  <path id="Bradley__AR" class="c05011" d="m593.08 410.32 6.7589-0.193 0.15868 4.033-0.60261 0.03-0.0143 0.04-0.0588 1.632 0.0178 0.112 0.312 0.924 0.21038 0.296 0.5937 0.435-0.25674 1.775-0.55269 0.467-0.37975 0.106-0.84151 0.681-0.70958 0.925-0.44929 1.155-1.6884-1.283-2.5049-1.295-0.0499-0.248 0.0499-0.146-0.53842-0.344-0.11411-0.717 0.082-0.716 0.16046-0.1 0.0802 0.03 0.32092-0.812 0.43324-1.29 0.14441-0.717-0.35123-3.222-0.21038-1.567" style="fill:#d0d0d0"/>
  <path id="Calhoun__AR" class="c05013" d="m588.2 408.32h4.7317l0.14619 2.007 0.21038 1.567 0.35123 3.222-0.14441 0.717-0.43324 1.29-0.32092 0.812-0.0802-0.03-0.16046 0.1-0.082 0.717 0.11411 0.716 0.53842 0.344-0.56338 0.491-0.83617 0.176-0.36905-0.02-0.57944-0.449 0.0267-0.06-0.17829-0.715-1.4299-0.771-0.27278-0.07-2.685-1.383-1.2034-1.375-0.16224-0.394-0.0642-0.818 0.92346-0.56259-0.0891-1.8644 0.13015-0.105 1.2694-0.217 0.0874-0.07 0.61866-0.973 0.50633-2.266" style="fill:#d0d0d0"/>
  <path id="Ouachita__AR" class="c05103" d="m582.29 408.34 5.9049-0.02-0.50633 2.266-0.61866 0.973-0.0874 0.07-1.2694 0.217-0.13015 0.105 0.0891 1.8644-0.92346 0.56259 0.0642 0.818 0.16224 0.394 1.2034 1.375 2.685 1.383-7.8678 0.04-2.6833 0.0204 7e-5 -1.6924v-7.49l3.9776-0.884" style="fill:#d0d0d0"/>
  <path id="Nevada__AR" class="c05099" d="m573.09 405.22 1.3728 1.97 2.9649 1.26 0.40114 0.225 0.49207 0.547v7.49l-4.7496 0.335-2.294 0.0545 0.0279-0.71948 9e-3 -4.548 0.19968-3.519v-3.054l1.576-0.04" style="fill:#d0d0d0"/>
  <path id="Hempstead__AR" class="c05057" d="m564.54 404.24 6.9746 1.027v3.054l-0.19968 3.519-9e-3 4.548-4.582-0.03-2.0307-2.908-2.0603-1.2604-0.51238-1.9376 2.3944 0.01 0.025-6.031" style="fill:#d0d0d0"/>
  <path id="Clark__AR" class="c05019" d="m570.86 396.4h1.3247l1.0384 0.0417-0.0258 1.2994 6.2828 1.446 0.76307 1.15h1.9273v3.991l-1.1549-0.36548 0.85005 2.4415 0.42789 1.927-3.9776 0.884-0.49207-0.547-0.40114-0.225-2.9649-1.26-1.3728-1.97-1.1089-2.065-0.28348-0.779-0.81834-3.954-0.0143-2.024" style="fill:#d0d0d0"/>
  <path id="Pike__AR" class="c05109" d="m562.23 396.4h8.6326l0.0143 2.024 0.81834 3.954 0.28348 0.779 1.1089 2.065-1.576 0.04-6.9746-1.027-0.0481-4.044-1.9915-0.02-0.24961-1.767-0.0178-2.007" style="fill:#d0d0d0"/>
  <path id="Howard__AR" class="c05061" d="m562.23 396.4 0.0178 2.007 0.24961 1.767 1.9915 0.02 0.0481 4.044-0.025 6.031-2.3944-0.01h-0.0321l-2.1198-3.808-0.0802-0.234-0.37084-2.443-0.13728-1.1-0.0571-1.745 0.0731-0.699-0.2086-0.1-2.7082 0.03-0.26386-1.774-0.0107-1.993h6.0279" style="fill:#d0d0d0"/>
  <path id="Polk__AR" class="c05113" d="m552.29 387.82 2.5177-0.0604 0.071 0.74335h5.625l1.6634 0.25v0.337l0.0624 7.297h-6.0279l0.0107 1.993 0.26386 1.774-4.2824 0.13 0.0963-12.464" style="fill:#d0d0d0"/>
  <path id="Sevier__AR" class="c05133" d="m556.47 400.16 2.7082-0.03 0.2086 0.1-0.0731 0.699 0.0571 1.746 0.13728 1.1 0.37084 2.442 0.0802 0.234 2.1198 3.808-1.5743-0.02-4.9992-1.48-3.3589-2.701 0.041-5.761 4.2824-0.13" style="fill:#d0d0d0"/>
  <path id="Little_River__AR" class="c05081" d="m552.15 406.05 3.3589 2.701 4.9992 1.48 1.5743 0.02h0.0321l0.51238 1.9376 2.0603 1.2604-4.1149 1.421-0.4582-0.378-0.353-0.144-1.8488-0.371-1.0697 0.155-0.27991 0.03-0.0963 0.09-1.8488 0.938-1.0287-0.561-0.27991-0.184-0.7809-0.499-0.12658-0.17-0.1462-0.335-0.15154-0.394 0.0463-7.001" style="fill:#d0d0d0"/>
  <path id="Miller__AR" class="c05091" d="m564.69 413.45 2.0307 2.908-0.13549 1.478 1.3193 1.954v0.121l-0.31378 1.02-1.4388 2.539-0.13728 0.177-0.1355 0.128-0.22464 0.03-1.0768 1.911 0.82725 1.359h-0.18542l-4.3859 0.1-0.25852-12.304 4.1149-1.421" style="fill:#d0d0d0"/>
  <path id="Lafayette__AR" class="c05073" d="m566.72 416.36 4.582 0.03-0.0279 0.71948 2.294-0.0545-0.2086 0.266-1.897 4.051-0.0232 5.585h-0.58835l-5.4467 0.121-0.82725-1.358 1.0768-1.911 0.22464-0.03 0.1355-0.129 0.13728-0.176 1.4388-2.539 0.31378-1.02v-0.121l-1.3193-1.954 0.13549-1.478" style="fill:#d0d0d0"/>
  <path id="Columbia__AR" class="c05027" d="m573.57 417.05 4.7496-0.335-7e-5 1.6924 2.6833-0.0204 0.0713 8.307-4.7959 0.13-4.8369 0.128 0.0232-5.586 1.897-4.05 0.2086-0.266" style="fill:#d0d0d0"/>
  <path id="Union__AR" class="c05139" d="m581 418.39 7.8678-0.04 0.27278 0.07 1.4299 0.771 0.17829 0.715-0.0267 0.06 0.57944 0.449 0.36905 0.02 0.83617-0.176 0.56338-0.491-0.0499 0.147 0.0499 0.247 2.5049 1.295 1.6884 1.283 1.462 3.522-12.592 0.338-5.0616 0.1-0.0713-8.307" style="fill:#d0d0d0"/>
  <path id="Mohave__AZ" class="c04015" d="m196.15 304.3 20.635 3.84 6.4451 1.143-1.7686 3.839-1.1963 3.022-0.0802 0.217-0.94849 2.972-0.0481 0.298v0.369l0.21751 0.676 0.19968 0.322-0.25673 1.5-0.21751 0.396-0.58656 0.69-0.23356 0.194-0.27278 0.09-4.2914 1.279-0.79516 0.169-0.80407 0.09-0.15155-0.05-1.0768 0.137-1.9522 0.747-2.7813 1.24-1.2854 2.626-2.1056 10.157-5.0616 27.531-0.41898 0.36-0.15154 0.07-0.20147 0.03-5.3015-0.6705-1.5197 1.0485-7.4007-3.327-0.8843-1.545-1.0216-1.138-1.1731-1.407-1.1874-4.999-0.0642-0.925-1.2783-2.008-1.0127-2.635-0.0161-0.121 0.0321-0.321 0.57765-2.557 1.7205-2.875 0.16758-0.548 0.0981-0.458 0.0232-0.513 0.12837-2.805-0.025-0.675-0.16759-1.348-0.24069-2.844 0.22464-4.027 0.49742-6.588 0.23356-2.25 0.016-0.146 0.24961-0.225 0.18363-0.1 2.0574-0.483h1.1268l1.059 0.217 2.3391 0.69 0.2496 0.234 0.54556 0.772 0.22464 0.563 0.0321 0.176 9e-3 0.05 0.0161 0.192 0.12837 0.385 0.4261 0.676 0.16046 0.168 0.23356 0.178 0.0963 0.02 0.36192 0.04 1.1161 0.02h0.016l0.0963-0.06 0.2496-0.282 2.3302-3.148 0.77912-4.042 0.44215-2.316 0.73098-4.172 0.0891-0.462 0.72206-3.786 0.69176-3.584" style="fill:#d0d0d0"/>
  <path id="La_Paz__AZ" class="c04012" d="m182.74 365.31 7.4007 3.327 1.5197-1.0485 5.3015 0.6705 0.20147-0.03 0.15154-0.07 0.41898-0.36-1.3425 7.247-2.603 14.126-11.724-2.209 0.37797-1.977-5.8175-1.093-1.9291 9.827-1.9433-0.328-2.7652-0.547-1.6723-0.28-0.312-0.138-0.88609-0.62-0.40115-1.068-0.0143-0.04 1.1321-6.975 1.9273-0.476 2.3142-2.731 0.74881-2.603 0.54555-2.724 0.10519-0.747 0.49029-1.76 0.53843-0.933 1.7276-2.442 2.3694-0.908 1.6242-0.666 2.4104-1.391 0.041-0.03 0.0642-0.997" style="fill:#d0d0d0"/>
  <path id="Cochise__AZ" class="c04003" d="m270.38 423.77 1.2712 0.167-3.4962 24.959-7.3116-1.059-20.05-2.942 1.5511-9.03 2.4354-15.857 5.3754 0.836 14.135 2.041 6.0903 0.885" style="fill:#d0d0d0"/>
  <path id="Santa_Cruz__AZ" class="c04023" d="m223.59 440.01 0.353-2.168 3.9223 0.626 0.73989-4.644 5.9708 0.82 7.7769 1.223-1.5511 9.03-10.013-1.551-2.3213-0.539-4.8779-2.797" style="fill:#d0d0d0"/>
  <path id="Pima__AZ" class="c04019" d="m211.65 412.76 7.7947 1.316 4.2735 0.845 7.2242 1.18 0.6347 0.09 3.013 0.307 5.9798 0.829 4.5303 0.699-0.312 1.975-2.4354 15.857-7.7769-1.223-5.9708-0.82-0.73989 4.644-3.9223-0.626-0.353 2.168-0.92353-0.528-2.9328-1.697-23.199-13.379-4.6444-2.642-3.6977-2.219 1.9451-10.576 21.512 3.795" style="fill:#d0d0d0"/>
  <path id="Greenlee__AZ" class="c04011" d="m267.08 394.71 0.40115-0.804 0.15333-0.13 2.6351-1.517 5.6749 0.77-4.2914 30.904-1.2712-0.167-1.815-2.653 0.0392-0.312 0.41897-0.908 0.25674-1.158v-1.045l-0.43324-1.687-1.0376-2.3-0.28882-0.05-2.3231-5.811 1.8809-13.129" style="fill:#d0d0d0"/>
  <path id="Graham__AZ" class="c04009" d="m259.33 395.57 1.141 1.068 1.9219 0.433 1.8809-1.173 2.8116-1.188-1.8809 13.129 2.3231 5.811 0.28882 0.05 1.0376 2.3 0.43324 1.687v1.045l-0.25674 1.158-0.41897 0.908-0.0392 0.312 1.815 2.653-6.0903-0.885-14.135-2.041-5.3754-0.836 0.312-1.975h0.041l0.39401-2.532 1.2534-8.283 0.73098-4.709 0.19255-2.227 0.39401-1.688 0.19255-0.305 0.66858-0.346 1.3978-0.433 0.52951-0.07 2.8455-0.314 3.1896 0.465 0.37797-2.539 2.0236 0.516" style="fill:#d0d0d0"/>
  <path id="Apache__AZ" class="c04001" d="m286.18 319.2-3.1735 22.867-4.5089 32.626-2.5459 18.337-5.6749-0.77-2.6351 1.517-0.15333 0.13-0.40115 0.804-2.8116 1.188-1.8809 1.173-1.9219-0.433-1.141-1.068 0.56339-3.803 0.69888-0.915 1.519-8.629 2.4265-16.01 1.5992-10.066 0.95562-5.015 0.48315-3.309-3.1896-0.475 4.5392-30.601 17.253 2.452" style="fill:#d0d0d0"/>
  <path id="Navajo__AZ" class="c04017" d="m268.92 316.75-4.5392 30.601 3.1896 0.475-0.48315 3.309-0.95562 5.015-1.5992 10.066-2.4265 16.01-1.519 8.629-0.69888 0.915-0.56339 3.803-2.0236-0.516 1.4388-9.666-14.063-2.147 10.744-68.671 4.6052 0.697 2.94 0.58 5.9548 0.9" style="fill:#d0d0d0"/>
  <path id="Gila__AZ" class="c04007" d="m245.62 377.23-0.94136 6.01 14.063 2.147-1.8168 12.205-3.1896-0.465-2.8455 0.314-0.52951 0.07-1.3978 0.433-0.66858 0.346-0.19255 0.305-0.39401 1.688-0.19255 2.227h-0.29596l-3.3839 0.644-1.9772 1.365-0.0232 0.104 0.11232 0.451-0.0481 0.16-1.109 1.092h-0.28882l-0.0571-0.03-2.1466-6.547-0.16759-1.858-0.42611-1.854-0.3851-1.487-1.3675-5.167-0.5616 0.321-0.47425 0.4-2.8205-4.483-0.24781-4.082-0.11411-0.345-0.0481-0.08-0.3851-0.176-0.55447 0.06 0.85935-1.344v-1.149l-0.10519-0.394-0.29596-0.577-3.9455-0.667-0.12124-0.218 7e-3 -0.06 0.66145-1.694 1.3247-3.229 0.26565-0.107 1.4049-0.415 0.45998-0.323 0.0321-0.03 0.10341-0.754 5.3361 1.54 4.0489 2.767 3.063 2.409 1.7757 0.458" style="fill:#d0d0d0"/>
  <path id="Pinal__AZ" class="c04021" d="m237.32 394.58 0.3851 1.487 0.42611 1.854 0.16759 1.858 2.1466 6.547 0.0571 0.03h0.28882l1.109-1.091 0.0481-0.161-0.11232-0.451 0.0232-0.103 1.9772-1.366 3.3839-0.644h0.29596l-0.73098 4.709-1.2534 8.283-0.39401 2.532h-0.041l-4.5303-0.699-5.9798-0.829-3.013-0.307-0.6347-0.09-7.2242-1.181-4.2735-0.845-7.7947-1.315 0.68284-3.957 2.2411-12.872 0.17651-0.995 0.0802 0.04 1.7044 2.106 2.0966 0.529 2.5959 0.46 4.8851 0.78 0.62044-3.957 0.40114-1.975 6.2115 1.047 3.9776 0.609" style="fill:#d0d0d0"/>
  <path id="Yuma__AZ" class="c04027" d="m193.79 389.17-3.6567 19.799-1.9451 10.576-0.32092-0.2-25.859-15.541 0.63649-2.766 0.0553-0.09 0.16759-0.06 0.32983 0.07 0.82012-0.756 0.77911-1.132 2.0182 0.152 2.6672-1.655 0.83438-1.173 0.16937-0.587 0.18542-1.511-0.57052-1.332-0.0553-0.06-0.0571-0.07 2.7652 0.548 1.9433 0.328 1.9291-9.827 5.8175 1.093-0.37797 1.977 11.724 2.209" style="fill:#d0d0d0"/>
  <path id="Maricopa__AZ" class="c04013" d="m196.39 375.04 11 1.976 8.285 4.211 0.75593-0.458 1.141-1.437 0.0802-0.316 0.77911-1.189 0.27278 0.08 7.7056 2.394 4.3324 0.724 0.55447-0.06 0.3851 0.177 0.0481 0.08 0.11411 0.344 0.24781 4.083 2.8205 4.482 0.47425-0.4 0.5616-0.321 1.3675 5.167-3.9776-0.61-6.2115-1.046-0.40114 1.975-0.62044 3.956-4.8851-0.779-2.5959-0.46-2.0966-0.529-1.7044-2.106-0.0802-0.04-0.17651 0.995-2.2411 12.872-0.68284 3.956-21.512-3.795 6.2596-33.925" style="fill:#d0d0d0"/>
  <path id="Coconino__AZ" class="c04005" d="m243.49 312.7 11.933 1.872-9.8022 62.661-1.7757-0.458-3.063-2.409-4.0489-2.767-5.3361-1.54 0.68462-3.771 0.61687-3.76-0.74702-0.128-3.2377-0.571-0.0571-0.9 0.54734-3.174-4.4197-0.627-0.6347-0.06-5.2559-0.884 0.67393-4.001-1.6866-1.929-9.0802-5.721-3.1646-3.247-1.5671-0.845-0.71671-0.16-0.28883-0.04-0.26565 0.02 2.1056-10.157 1.2854-2.626 2.7813-1.24 1.9522-0.747 1.0768-0.137 0.15155 0.05 0.80407-0.09 0.79516-0.169 4.2914-1.279 0.27278-0.09 0.23356-0.194 0.58656-0.69 0.21751-0.396 0.25673-1.5-0.19968-0.322-0.21751-0.676v-0.369l0.0481-0.298 0.94849-2.972 0.0802-0.217 1.1963-3.022 1.7686-3.839 20.257 3.414" style="fill:#d0d0d0"/>
  <path id="Yavapai__AZ" class="c04025" d="m202.8 340.26 0.26565-0.02 0.28883 0.04 0.71671 0.16 1.5671 0.845 3.1646 3.247 9.0802 5.721 1.6866 1.929-0.67393 4.001 5.2559 0.884 0.6347 0.06 4.4197 0.627-0.54734 3.174 0.0571 0.9 3.2377 0.571 0.74702 0.128-0.61687 3.76-0.68462 3.771-0.10341 0.754-0.0321 0.03-0.45998 0.323-1.4049 0.415-0.26565 0.107-1.3247 3.229-0.66145 1.694-7e-3 0.06 0.12124 0.218 3.9455 0.667 0.29596 0.577 0.10519 0.394v1.149l-0.85935 1.344-4.3324-0.724-7.7056-2.394-0.27278-0.08-0.77911 1.189-0.0802 0.315-1.141 1.437-0.75593 0.459-8.285-4.211-11-1.976 1.3425-7.247 5.0616-27.531" style="fill:#d0d0d0"/>
  <path id="Del_Norte__CA" class="c06015" d="m50.323 148.95 6.3328 1.993 4.9742 1.375-0.54734 0.914-0.75415 0.983-1.166 0.112-1.6313 1.453-1.3015 6.019 0.15333 0.531 0.15333 1.478-0.09806 0.282-0.80229 0.931-0.44393 0.306-0.93957-0.274-0.66679-0.892 0.35479-1.189-1.8809-0.611-2.956-0.867 0.28704-1.92 0.06418-1.31 0.02496-2.571-0.0071-0.218-0.04101-0.273-0.08914-0.297 0.39402-3.785 0.58656-2.17" style="fill:#d0d0d0"/>
  <path id="Siskiyou__CA" class="c06093" d="m61.63 152.32 4.7086 1.317h0.04101l1.2284 0.255 1.7526 0.637 0.72206 0.215 0.42611 0.122 5.5697 1.574 2.209 0.547 2.0164 0.546 0.52238 0.169 0.9164 0.282 13.733 4.09-0.44394 1.012-0.15868 0.555-0.87717 3.231 0.02496 0.07 0.08023 0.05-2.0895 7.763-1.503 5.489-9.1996-2.557-4.7656-1.381-3.4712-0.933 0.41719-2.337-2.0325-1.254-3.6085 1.421-2.5156 2.605 0.15333 1.068-0.2086 0.371-0.3851 0.305-0.32983-0.05-1.3496-0.685-2.3142-2.442-1.2694-1.905-0.78803-0.763-0.82012-0.659 0.12837-4.491-0.32092-0.459-2.6369-0.779 0.44393-0.306 0.80229-0.931 0.09806-0.282-0.15333-1.478-0.15333-0.531 1.3015-6.019 1.6313-1.453 1.166-0.112 0.75415-0.983 0.54734-0.914" style="fill:#d0d0d0"/>
  <path id="Imperial__CA" class="c06025" d="m142.45 377.78 11.557 2.418 9.4813 1.858 2.4586 0.424 3.8154 0.763-1.9273 0.476-1.1321 6.975 0.0143 0.04 0.40115 1.068 0.88609 0.62 0.312 0.138 1.6723 0.28 0.0571 0.06 0.0553 0.06 0.57052 1.332-0.18542 1.512-0.16937 0.586-0.83438 1.173-2.6672 1.655-2.0182-0.152h-0.11232l-14.206-1.686-0.28169-0.03-1.6153-0.193-6.0029-0.715-2.5548-0.298-1.8809-0.217 0.86826-3.799 1.815-6.395 0.56338-2.63 1.0608-5.319" style="fill:#d0d0d0"/>
  <path id="Riverside__CA" class="c06065" d="m176.23 369.3-1.7276 2.442-0.53843 0.933-0.49029 1.76-0.10519 0.747-0.54555 2.724-0.74881 2.603-2.3142 2.731-3.8154-0.763-2.4586-0.424-9.4813-1.858-11.557-2.418-4.0097-0.909-5.9227-1.285-4.081-0.892-7.5219-1.806 0.0891-0.387-2.0022-1.784-2.6993-0.619 0.13728-0.66 2.4586-2.401-0.9164-1.271-1.0679-0.401-0.55626-1.495-1.1963-2.718 0.62757-1.138 2.3534-2.034 2.66 0.603 0.72385 0.169 0.16046 0.385 2.4586 0.916 5.4805 1.22 2.4015 0.09 4.6693 0.82 13.532 2.86 9.4332 2 0.20239-1.0122 3.5434 0.69815 12.824 2.573" style="fill:#d0d0d0"/>
  <path id="San_Diego__CA" class="c06073" d="m116.3 370.1 2.6993 0.619 2.0022 1.784-0.0891 0.387 7.5219 1.806 4.081 0.892 5.9227 1.285 4.0097 0.909-1.0608 5.319-0.56338 2.629-1.815 6.396-0.86826 3.799-1.7989-0.218-3.6638-0.44-3.7298-0.433-5.263-0.621-5.0544-0.617h-0.11232l-0.87539-3.833 0.35301-5.68v-0.192h9e-3l0.0143-1.24 9e-3 -0.481-0.22464-1.968-0.0963-0.697-0.36906-1.097-0.0339-0.09-1.0358-2.612-0.30487-0.731-0.0571-0.114-0.41719-0.883-0.61866-0.891-0.37797-0.408-0.41006-0.277 2.2179-2.289" style="fill:#d0d0d0"/>
  <path id="Orange__CA" class="c06059" d="m113.53 358.99 1.6313 2.167 1.1963 2.718 0.55626 1.495 1.0679 0.401 0.9164 1.271-2.4586 2.401-0.13728 0.66-2.2179 2.289-0.12123-0.488-0.32092-0.651-0.19968-0.291-3.5283-4.426-2.8366-3.472-0.69175-0.854 0.49029-0.866 1.0287-1.295 2.0253-1.741 0.85935 0.06 0.21751 0.05 2.5228 0.579" style="fill:#d0d0d0"/>
  <path id="Los_Angeles__CA" class="c06037" d="m96.897 381.81-1.4299-0.06-0.90748-1.118-0.12124-0.192-0.44215-1.407-0.40115-2.514 0.50634 0.17 2.6351 4.594 0.21751 0.467-0.05705 0.06m-0.97166-15.651-0.08023-0.06-0.01605-0.166 0.01605-0.03 0.08736 0.02 0.98236 0.33 1.1 0.884 0.89144 0.715 0.67571 0.571 0.86826 1.799 0.0713 0.185 0.0481 0.385-0.0874 0.209-0.26564 0.155h-0.16943l-2.3142-1.093-0.15333-0.137-1.6545-3.776m24.333-26.405-1.223 5.302-0.56874 3.063-0.42789 2.603-0.16937 1.125-1.2355 2.675-1.0679 1.784-0.4261 0.708-1.3354 0.649-0.48138 0.589-0.0321 0.16 0.0874 0.362 0.15333 0.217-2.5228-0.579-0.21751-0.05-0.85935-0.06-2.0253 1.741-1.0287 1.295-0.49029 0.866-1.4299 0.195-1.503-0.03-0.69176-0.273-0.34409-0.195-1.3425-0.866-0.24069-0.2-0.14441-0.811 0.1355-0.144 0.43502-0.323 0.22464-0.05 0.11232-0.232 0.11945-0.579-0.14263-1.061-0.0891-0.515-0.0481-0.289-0.1034-0.596-0.18542-0.724-0.25852-0.697-0.0232-0.05-0.0321-0.07-9e-3 -0.01-0.19968-0.394-0.041-0.05-0.15154-0.218-0.0499-0.07-0.0553-0.05-0.3227-0.305-0.46533-0.184-1.8399-0.386-1.4459-0.193-0.76307 0.06-2.8455-1.262 0.24069-0.644 1.8328-0.795 1.478-0.619 2.2179 0.548 1.125-1.794 0.12124-0.841-1.7436-12.304-0.08023-0.667 22.42 5.24" style="fill:#d0d0d0"/>
  <path id="Ventura__CA" class="c06111" d="m88.332 330.16 1.0608 0.385 1.8239 0.85 0.2496 0.596 0.08736 0.625 4.6372 2.138 1.7276 0.426 1.7436 12.304-0.12124 0.841-1.125 1.794-2.2179-0.547-1.478 0.618-1.8328 0.795-0.24069 0.644-2.5228-1.904-2.7724-4.823-1.897-2.442-0.44215-0.562-0.23356-0.105 0.5313-0.369 0.15333-0.136 0.35301-1.126 2.5156-10.002" style="fill:#d0d0d0"/>
  <path id="Santa_Barbara__CA" class="c06083" d="m68.428 346.59 3.3589 0.271 1.503 1.375-0.04992 0.763-0.01426 0.144-0.08023 0.02-2.7421 0.321-0.24782 0.01-0.73098-0.746-0.13728-0.24-0.85934-1.928m9.385 1.05 0.7078 0.5 1.8649 0.618 0.06418-0.04 0.03031-0.02 0.04814-0.02 0.0731-0.04 0.09628-0.06 0.05705-0.02 0.50634 0.03 0.60974 0.451 0.12837 0.191h-0.0071l-0.0071 0.02-0.01783 0.01-0.61866 0.483-0.1765 0.144-0.12837 0.02-3.1575 0.06-0.68462-0.162-0.66679-0.264h-0.0071l-0.2496-0.123-0.56339-0.262-0.50455-0.371-0.04101-0.135-0.36905-2.09 0.12837-0.162 0.11232 0.03 0.98949 0.392 1.7829 0.811m-10.936-24.78 2.8686 0.312 1.0216 0.396 0.9467 0.972 1.2462-0.209 1.2052-0.676 3.7119-1.069 0.34588 0.41 1.0537 0.988 3.2537 2.611 4.081 3.213 0.82012 0.211h0.34588l0.55447 0.139-2.5156 10.002-0.35301 1.126-0.15333 0.136-0.5313 0.369-1.3407-1.229-1.0127-0.44-1.0287-0.146h-0.32092l-1.1-0.05-2.3159-0.731-0.79516-0.804-1.3585-0.981-0.54556-0.216-1.4138-0.524-1.182-0.314-1.3746-0.288-1.5743-0.2-1.872-0.323-2.4104-3.148 0.15154-1.826 1.182-6.065 0.41006-1.648" style="fill:#d0d0d0"/>
  <path id="San_Luis_Obispo__CA" class="c06079" d="m59.268 301.14 20.234 5.539 0.35301 0.1-1.0127 3.92 2.332 0.81867-0.35478 2.1213 1.1131 1.8808 1.6557 0.57404-0.62399 1.9581 1.4073 0.53837-0.62815 1.7596 2.0004 0.531 0.53664 0.63075-0.1554 1.7299 0.90302-0.14271 0.86231 0.30508-0.37202 2.1974 1.2563 0.48762-0.99662 3.935h-0.34588l-0.82012-0.211-4.081-3.213-3.2537-2.611-1.0537-0.988-0.34588-0.41-3.7119 1.07-1.2052 0.675-1.2462 0.209-0.9467-0.972-1.0216-0.396-2.8686-0.312 0.30487-0.556 0.02496-0.04 0.28882-0.642 0.23356-0.619 0.11054-0.379 0.08201-0.384 0.02318-0.105 0.0089-0.04 0.03922-0.511v-0.03l-0.05527-0.369-0.08023-0.22-0.16759-0.174-0.55626-0.571-0.08023-0.07-0.16046-0.111-1.6634-4.532-3.0772-5.674-2.0253-3.135-0.31378-0.328-0.18364-0.224-0.29061-1.02-0.07131-1.988" style="fill:#d0d0d0"/>
  <path id="Kern__CA" class="c06029" d="m91.634 309.79 8.7182 2.16 9.8753 2.427 7.8749 1.84 1.0626 0.305 6.8052 1.399-0.74702 1.904-0.1765 0.658-0.24069 2.708-3.9063 16.722-0.64183-0.159-22.42-5.24 0.08023 0.667-1.7276-0.426-4.6372-2.138-0.08736-0.625-0.2496-0.596-1.8239-0.85-1.0608-0.385-0.55447-0.139 0.99662-3.935-1.2563-0.48762 0.37202-2.1974-0.86231-0.30508-0.90302 0.14271 0.1554-1.7299-0.53664-0.63075-2.0004-0.531 0.62815-1.7596-1.4073-0.53837 0.62399-1.9581-1.6557-0.57404-1.1131-1.8808 0.35478-2.1213-2.332-0.81867 1.0127-3.92 11.779 3.013" style="fill:#d0d0d0"/>
  
 </g>
 <!-- <path id="_separator" class="separator" d="m154.41 294.82v35.384l23.16 20.946m-176.92-100.08h110.65l43.104 43.748h55.328l34.097 34.741v21.59" style="fill:none;stroke-width:1.3007;stroke:#a9a9a9"/> -->
</svg>
